<svg width="1336" height="430" viewBox="0 0 1336 430" fill="none" xmlns="http://www.w3.org/2000/svg">
<g filter="url(#filter0_f_47_341)">
<rect x="242.61" y="6.44306" width="252.163" height="416.97" rx="25.5107" stroke="#ADADAD" stroke-width="0.886126"/>
<g clip-path="url(#clip0_47_341)">
<rect x="255.144" y="18.9769" width="226.787" height="281.984" rx="23.9986" fill="#E1E1E1"/>
<path d="M298.088 263.566L304.818 222.55H311.226L304.497 263.566H298.088ZM279.723 253.392L280.785 246.984H312.828L311.767 253.392H279.723ZM283.669 263.566L290.398 222.55H296.807L290.077 263.566H283.669ZM282.067 239.133L283.148 232.724H315.192L314.11 239.133H282.067Z" fill="#545454"/>
<g filter="url(#filter1_f_47_341)">
<rect x="320.136" y="-42.5525" width="121.709" height="121.709" rx="60.8545" fill="#00FFF0"/>
</g>
</g>
<path d="M256.693 341.426V325.718H259.538V332.368H266.817V325.718H269.671V341.426H266.817V334.753H259.538V341.426H256.693ZM276.033 341.664C275.286 341.664 274.614 341.531 274.016 341.265C273.422 340.994 272.952 340.595 272.604 340.069C272.262 339.542 272.09 338.893 272.09 338.121C272.09 337.456 272.213 336.906 272.459 336.471C272.704 336.037 273.039 335.689 273.463 335.428C273.888 335.168 274.366 334.971 274.898 334.838C275.435 334.7 275.989 334.6 276.562 334.539C277.252 334.467 277.812 334.403 278.242 334.347C278.671 334.286 278.983 334.194 279.178 334.071C279.377 333.943 279.477 333.746 279.477 333.48V333.434C279.477 332.856 279.305 332.409 278.963 332.092C278.62 331.775 278.127 331.616 277.482 331.616C276.802 331.616 276.263 331.765 275.864 332.061C275.47 332.358 275.204 332.708 275.066 333.112L272.474 332.744C272.678 332.028 273.016 331.43 273.486 330.949C273.957 330.463 274.532 330.1 275.212 329.86C275.892 329.615 276.644 329.492 277.467 329.492C278.035 329.492 278.6 329.558 279.162 329.691C279.725 329.824 280.239 330.044 280.704 330.351C281.169 330.653 281.542 331.064 281.824 331.586C282.11 332.107 282.253 332.759 282.253 333.542V341.426H279.584V339.808H279.492C279.323 340.135 279.086 340.442 278.779 340.728C278.477 341.01 278.096 341.237 277.636 341.411C277.181 341.58 276.646 341.664 276.033 341.664ZM276.754 339.624C277.311 339.624 277.794 339.514 278.203 339.294C278.613 339.069 278.927 338.773 279.147 338.404C279.372 338.036 279.484 337.635 279.484 337.2V335.812C279.397 335.883 279.249 335.95 279.04 336.011C278.835 336.073 278.605 336.126 278.349 336.172C278.094 336.218 277.84 336.259 277.59 336.295C277.339 336.331 277.122 336.362 276.938 336.387C276.524 336.443 276.153 336.535 275.826 336.663C275.499 336.791 275.24 336.97 275.051 337.2C274.862 337.425 274.767 337.717 274.767 338.075C274.767 338.586 274.954 338.972 275.327 339.233C275.7 339.493 276.176 339.624 276.754 339.624ZM284.393 338.197H287.147C287.172 338.637 287.369 338.977 287.737 339.217C288.105 339.458 288.584 339.578 289.172 339.578C289.77 339.578 290.274 339.447 290.683 339.187C291.097 338.921 291.304 338.519 291.304 337.982C291.304 337.665 291.225 337.387 291.066 337.146C290.908 336.901 290.685 336.712 290.399 336.579C290.112 336.446 289.775 336.379 289.386 336.379H287.584V334.408H289.386C289.964 334.408 290.401 334.275 290.698 334.009C291 333.744 291.15 333.409 291.15 333.005C291.15 332.57 290.992 332.217 290.675 331.946C290.363 331.675 289.931 331.54 289.379 331.54C288.826 331.54 288.366 331.665 287.998 331.916C287.635 332.166 287.446 332.488 287.431 332.882H284.692C284.703 332.197 284.907 331.601 285.306 331.095C285.71 330.589 286.252 330.195 286.932 329.914C287.617 329.632 288.389 329.492 289.248 329.492C290.169 329.492 290.964 329.63 291.634 329.906C292.304 330.182 292.82 330.568 293.183 331.064C293.546 331.555 293.728 332.133 293.728 332.798C293.728 333.437 293.528 333.966 293.129 334.385C292.73 334.799 292.194 335.096 291.519 335.275V335.398C291.984 335.423 292.403 335.556 292.777 335.797C293.15 336.032 293.446 336.351 293.666 336.755C293.886 337.159 293.996 337.627 293.996 338.159C293.996 338.88 293.789 339.504 293.375 340.03C292.961 340.552 292.39 340.953 291.664 341.235C290.943 341.516 290.118 341.656 289.187 341.656C288.282 341.656 287.471 341.521 286.756 341.25C286.045 340.974 285.48 340.578 285.06 340.061C284.641 339.545 284.419 338.923 284.393 338.197ZM296.182 341.426V329.645H301.129C302.525 329.645 303.627 329.924 304.435 330.481C305.248 331.039 305.654 331.816 305.654 332.813C305.654 333.473 305.424 334.012 304.964 334.431C304.509 334.845 303.888 335.124 303.1 335.267C303.719 335.318 304.261 335.474 304.726 335.735C305.197 335.996 305.565 336.339 305.831 336.763C306.097 337.187 306.23 337.676 306.23 338.228C306.23 338.877 306.058 339.442 305.716 339.923C305.378 340.399 304.885 340.769 304.236 341.035C303.591 341.296 302.809 341.426 301.888 341.426H296.182ZM298.782 339.24H301.888C302.4 339.24 302.801 339.12 303.093 338.88C303.384 338.634 303.53 338.302 303.53 337.883C303.53 337.397 303.384 337.016 303.093 336.74C302.801 336.459 302.4 336.318 301.888 336.318H298.782V339.24ZM298.782 334.523H301.183C301.561 334.523 301.886 334.47 302.157 334.362C302.428 334.25 302.635 334.094 302.778 333.894C302.921 333.69 302.993 333.447 302.993 333.166C302.993 332.762 302.827 332.445 302.494 332.215C302.167 331.985 301.712 331.869 301.129 331.869H298.782V334.523ZM311.911 341.664C311.165 341.664 310.492 341.531 309.894 341.265C309.301 340.994 308.83 340.595 308.483 340.069C308.14 339.542 307.969 338.893 307.969 338.121C307.969 337.456 308.092 336.906 308.337 336.471C308.583 336.037 308.917 335.689 309.342 335.428C309.766 335.168 310.244 334.971 310.776 334.838C311.313 334.7 311.868 334.6 312.441 334.539C313.131 334.467 313.691 334.403 314.12 334.347C314.55 334.286 314.862 334.194 315.056 334.071C315.255 333.943 315.355 333.746 315.355 333.48V333.434C315.355 332.856 315.184 332.409 314.841 332.092C314.499 331.775 314.005 331.616 313.361 331.616C312.681 331.616 312.141 331.765 311.743 332.061C311.349 332.358 311.083 332.708 310.945 333.112L308.352 332.744C308.557 332.028 308.894 331.43 309.365 330.949C309.835 330.463 310.411 330.1 311.091 329.86C311.771 329.615 312.522 329.492 313.346 329.492C313.913 329.492 314.478 329.558 315.041 329.691C315.603 329.824 316.117 330.044 316.582 330.351C317.048 330.653 317.421 331.064 317.702 331.586C317.989 332.107 318.132 332.759 318.132 333.542V341.426H315.463V339.808H315.37C315.202 340.135 314.964 340.442 314.657 340.728C314.355 341.01 313.975 341.237 313.514 341.411C313.059 341.58 312.525 341.664 311.911 341.664ZM312.632 339.624C313.19 339.624 313.673 339.514 314.082 339.294C314.491 339.069 314.805 338.773 315.025 338.404C315.25 338.036 315.363 337.635 315.363 337.2V335.812C315.276 335.883 315.128 335.95 314.918 336.011C314.713 336.073 314.483 336.126 314.228 336.172C313.972 336.218 313.719 336.259 313.468 336.295C313.218 336.331 313 336.362 312.816 336.387C312.402 336.443 312.031 336.535 311.704 336.663C311.377 336.791 311.119 336.97 310.93 337.2C310.74 337.425 310.646 337.717 310.646 338.075C310.646 338.586 310.832 338.972 311.206 339.233C311.579 339.493 312.054 339.624 312.632 339.624ZM329.015 334.385V336.663H322.741V334.385H329.015ZM323.6 329.645V341.426H320.924V329.645H323.6ZM330.833 329.645V341.426H328.164V329.645H330.833ZM336.319 337.668L341.036 329.645H343.89V341.426H341.205V333.396L336.503 341.426H333.642V329.645H336.319V337.668ZM351.956 341.656C350.775 341.656 349.755 341.411 348.896 340.92C348.042 340.424 347.385 339.724 346.925 338.819C346.465 337.908 346.235 336.837 346.235 335.605C346.235 334.393 346.465 333.329 346.925 332.414C347.39 331.494 348.04 330.778 348.873 330.266C349.707 329.75 350.686 329.492 351.811 329.492C352.537 329.492 353.222 329.609 353.866 329.845C354.516 330.075 355.088 330.433 355.584 330.918C356.085 331.404 356.479 332.023 356.766 332.775C357.052 333.521 357.195 334.411 357.195 335.444V336.295H347.539V334.424H354.534C354.528 333.892 354.413 333.419 354.188 333.005C353.963 332.585 353.649 332.256 353.245 332.015C352.846 331.775 352.381 331.655 351.849 331.655C351.281 331.655 350.783 331.793 350.353 332.069C349.924 332.34 349.589 332.698 349.349 333.143C349.113 333.582 348.993 334.066 348.988 334.592V336.226C348.988 336.911 349.113 337.499 349.364 337.99C349.615 338.476 349.965 338.849 350.415 339.11C350.865 339.366 351.391 339.493 351.995 339.493C352.399 339.493 352.764 339.437 353.092 339.325C353.419 339.207 353.703 339.036 353.943 338.811C354.183 338.586 354.365 338.307 354.488 337.975L357.08 338.266C356.916 338.951 356.604 339.55 356.144 340.061C355.689 340.567 355.106 340.961 354.396 341.242C353.685 341.518 352.872 341.656 351.956 341.656ZM364.902 341.426V329.645H367.678V334.401H368.691L372.234 329.645H375.578L371.214 335.428L375.624 341.426H372.265L369.036 336.985H367.678V341.426H364.902ZM385.29 334.385V336.663H379.016V334.385H385.29ZM379.875 329.645V341.426H377.198V329.645H379.875ZM387.108 329.645V341.426H384.439V329.645H387.108ZM392.594 337.668L397.311 329.645H400.164V341.426H397.48V333.396L392.778 341.426H389.917V329.645H392.594V337.668ZM410.809 329.645V331.923H405.731V341.426H403.016V329.645H410.809ZM415.712 337.668L420.429 329.645H423.282V341.426H420.597V333.396L415.896 341.426H413.035V329.645H415.712V337.668Z" fill="black"/>
<path d="M257.407 372.826H255.634L260.761 358.863H262.507L267.634 372.826H265.861L261.689 361.072H261.58L257.407 372.826ZM258.062 367.372H265.207V368.872H258.062V367.372ZM269.59 372.826V362.354H273.872C274.999 362.354 275.895 362.608 276.558 363.117C277.222 363.626 277.554 364.299 277.554 365.135C277.554 365.772 277.365 366.265 276.988 366.615C276.611 366.96 276.126 367.194 275.536 367.317C275.922 367.372 276.297 367.508 276.661 367.726C277.029 367.944 277.333 368.244 277.574 368.626C277.815 369.003 277.935 369.467 277.935 370.017C277.935 370.553 277.799 371.033 277.526 371.455C277.254 371.878 276.863 372.212 276.354 372.458C275.845 372.703 275.236 372.826 274.527 372.826H269.59ZM271.118 371.353H274.527C275.081 371.353 275.515 371.221 275.829 370.958C276.142 370.694 276.299 370.335 276.299 369.881C276.299 369.34 276.142 368.915 275.829 368.606C275.515 368.292 275.081 368.135 274.527 368.135H271.118V371.353ZM271.118 366.744H273.872C274.304 366.744 274.674 366.685 274.983 366.567C275.292 366.444 275.529 366.272 275.692 366.049C275.861 365.822 275.945 365.554 275.945 365.244C275.945 364.804 275.761 364.458 275.392 364.208C275.024 363.954 274.517 363.826 273.872 363.826H271.118V366.744ZM279.771 363.854V362.354H288.28V363.854H284.844V372.826H283.235V363.854H279.771ZM294.337 373.044C293.392 373.044 292.562 372.819 291.849 372.369C291.14 371.919 290.585 371.29 290.185 370.481C289.79 369.671 289.592 368.726 289.592 367.644C289.592 366.553 289.79 365.601 290.185 364.788C290.585 363.974 291.14 363.342 291.849 362.892C292.562 362.442 293.392 362.217 294.337 362.217C295.283 362.217 296.11 362.442 296.819 362.892C297.533 363.342 298.087 363.974 298.483 364.788C298.883 365.601 299.083 366.553 299.083 367.644C299.083 368.726 298.883 369.671 298.483 370.481C298.087 371.29 297.533 371.919 296.819 372.369C296.11 372.819 295.283 373.044 294.337 373.044ZM294.337 371.599C295.056 371.599 295.646 371.415 296.11 371.046C296.574 370.678 296.917 370.194 297.139 369.594C297.362 368.994 297.474 368.344 297.474 367.644C297.474 366.944 297.362 366.292 297.139 365.688C296.917 365.083 296.574 364.594 296.11 364.222C295.646 363.849 295.056 363.663 294.337 363.663C293.619 363.663 293.028 363.849 292.565 364.222C292.101 364.594 291.758 365.083 291.535 365.688C291.313 366.292 291.201 366.944 291.201 367.644C291.201 368.344 291.313 368.994 291.535 369.594C291.758 370.194 292.101 370.678 292.565 371.046C293.028 371.415 293.619 371.599 294.337 371.599ZM301.539 376.753V362.354H303.093V364.017H303.284C303.402 363.835 303.566 363.604 303.775 363.322C303.989 363.035 304.293 362.781 304.688 362.558C305.088 362.331 305.629 362.217 306.311 362.217C307.193 362.217 307.97 362.438 308.643 362.879C309.315 363.32 309.84 363.945 310.218 364.754C310.595 365.563 310.784 366.517 310.784 367.617C310.784 368.726 310.595 369.687 310.218 370.501C309.84 371.31 309.318 371.937 308.65 372.383C307.981 372.824 307.211 373.044 306.338 373.044C305.666 373.044 305.127 372.933 304.723 372.71C304.318 372.483 304.007 372.226 303.789 371.94C303.57 371.649 303.402 371.408 303.284 371.217H303.148V376.753H301.539ZM303.12 367.59C303.12 368.381 303.236 369.078 303.468 369.683C303.7 370.283 304.039 370.753 304.484 371.094C304.929 371.43 305.475 371.599 306.12 371.599C306.793 371.599 307.354 371.421 307.804 371.067C308.259 370.708 308.6 370.226 308.827 369.621C309.059 369.012 309.175 368.335 309.175 367.59C309.175 366.853 309.061 366.19 308.834 365.599C308.611 365.004 308.272 364.533 307.818 364.188C307.368 363.838 306.802 363.663 306.12 363.663C305.466 363.663 304.916 363.829 304.47 364.16C304.025 364.488 303.689 364.947 303.461 365.538C303.234 366.124 303.12 366.808 303.12 367.59Z" fill="black"/>
<path d="M263.217 385.394V396.719H261.846V385.394H263.217ZM255.564 396.719L259.236 390.813L255.874 385.394H257.532L260.474 390.415H264.611L267.553 385.394H269.212L265.827 390.835L269.499 396.719H267.929L264.854 391.698H260.209L257.112 396.719H255.564ZM273.619 396.918C273.081 396.918 272.592 396.817 272.154 396.614C271.715 396.407 271.367 396.111 271.108 395.724C270.85 395.333 270.721 394.861 270.721 394.308C270.721 393.821 270.817 393.427 271.009 393.124C271.201 392.818 271.457 392.579 271.778 392.406C272.098 392.232 272.452 392.103 272.839 392.018C273.23 391.93 273.623 391.86 274.017 391.808C274.533 391.742 274.952 391.692 275.272 391.659C275.597 391.622 275.833 391.561 275.98 391.477C276.131 391.392 276.207 391.244 276.207 391.034V390.99C276.207 390.444 276.058 390.02 275.759 389.718C275.464 389.416 275.016 389.265 274.415 389.265C273.792 389.265 273.304 389.401 272.95 389.674C272.596 389.947 272.347 390.238 272.203 390.548L270.965 390.105C271.186 389.589 271.481 389.187 271.849 388.9C272.222 388.608 272.627 388.406 273.066 388.291C273.508 388.173 273.943 388.114 274.371 388.114C274.644 388.114 274.957 388.148 275.311 388.214C275.669 388.277 276.013 388.407 276.345 388.607C276.681 388.806 276.959 389.106 277.18 389.508C277.402 389.91 277.512 390.448 277.512 391.123V396.719H276.207V395.569H276.141C276.052 395.753 275.905 395.95 275.698 396.16C275.492 396.371 275.217 396.549 274.874 396.697C274.531 396.844 274.113 396.918 273.619 396.918ZM273.818 395.746C274.334 395.746 274.769 395.644 275.123 395.442C275.481 395.239 275.75 394.977 275.931 394.656C276.115 394.336 276.207 393.998 276.207 393.644V392.45C276.152 392.516 276.03 392.577 275.842 392.632C275.658 392.684 275.444 392.73 275.201 392.771C274.961 392.807 274.727 392.841 274.498 392.87C274.273 392.896 274.091 392.918 273.951 392.936C273.612 392.981 273.295 393.053 273 393.152C272.708 393.248 272.473 393.394 272.292 393.589C272.115 393.781 272.026 394.042 272.026 394.374C272.026 394.828 272.194 395.171 272.53 395.403C272.869 395.631 273.298 395.746 273.818 395.746ZM285.579 391.875V393.091H280.89V391.875H285.579ZM281.199 388.225V396.719H279.894V388.225H281.199ZM286.574 388.225V396.719H285.269V388.225H286.574ZM288.958 399.904V388.225H290.218V389.574H290.373C290.469 389.427 290.602 389.239 290.771 389.01C290.945 388.778 291.192 388.572 291.513 388.391C291.837 388.207 292.276 388.114 292.829 388.114C293.544 388.114 294.174 388.293 294.72 388.651C295.265 389.008 295.691 389.515 295.997 390.171C296.303 390.828 296.456 391.602 296.456 392.494C296.456 393.394 296.303 394.173 295.997 394.833C295.691 395.489 295.267 395.998 294.725 396.359C294.183 396.717 293.559 396.896 292.851 396.896C292.305 396.896 291.868 396.806 291.54 396.625C291.212 396.441 290.96 396.232 290.783 396C290.606 395.764 290.469 395.569 290.373 395.414H290.263V399.904H288.958ZM290.241 392.472C290.241 393.113 290.335 393.679 290.523 394.17C290.711 394.656 290.985 395.038 291.347 395.314C291.708 395.587 292.15 395.724 292.674 395.724C293.219 395.724 293.675 395.58 294.04 395.292C294.408 395.001 294.685 394.61 294.869 394.12C295.057 393.626 295.151 393.077 295.151 392.472C295.151 391.875 295.059 391.336 294.875 390.857C294.694 390.374 294.419 389.993 294.051 389.713C293.686 389.429 293.227 389.287 292.674 389.287C292.143 389.287 291.697 389.421 291.336 389.69C290.974 389.956 290.701 390.328 290.517 390.807C290.333 391.283 290.241 391.838 290.241 392.472Z" fill="#888888"/>
</g>
<g filter="url(#filter2_f_47_341)">
<rect x="841.227" y="6.44306" width="252.163" height="416.97" rx="25.5107" stroke="#ADADAD" stroke-width="0.886126"/>
<g clip-path="url(#clip1_47_341)">
<rect x="853.761" y="18.9769" width="226.787" height="281.984" rx="23.9986" fill="#E1E1E1"/>
<path d="M896.706 263.566L903.435 222.55H909.844L903.115 263.566H896.706ZM878.341 253.392L879.402 246.984H911.446L910.385 253.392H878.341ZM882.286 263.566L889.016 222.55H895.424L888.695 263.566H882.286ZM880.684 239.133L881.766 232.724H913.809L912.728 239.133H880.684Z" fill="#545454"/>
<g filter="url(#filter3_f_47_341)">
<rect x="918.754" y="-42.5525" width="121.709" height="121.709" rx="60.8545" fill="#FFF500"/>
</g>
</g>
<path d="M855.311 341.426V325.718H858.156V332.368H865.435V325.718H868.288V341.426H865.435V334.753H858.156V341.426H855.311ZM874.651 341.664C873.904 341.664 873.232 341.531 872.633 341.265C872.04 340.994 871.57 340.595 871.222 340.069C870.879 339.542 870.708 338.893 870.708 338.121C870.708 337.456 870.831 336.906 871.076 336.471C871.322 336.037 871.657 335.689 872.081 335.428C872.505 335.168 872.984 334.971 873.515 334.838C874.052 334.7 874.607 334.6 875.18 334.539C875.87 334.467 876.43 334.403 876.859 334.347C877.289 334.286 877.601 334.194 877.795 334.071C877.995 333.943 878.094 333.746 878.094 333.48V333.434C878.094 332.856 877.923 332.409 877.58 332.092C877.238 331.775 876.744 331.616 876.1 331.616C875.42 331.616 874.881 331.765 874.482 332.061C874.088 332.358 873.822 332.708 873.684 333.112L871.092 332.744C871.296 332.028 871.634 331.43 872.104 330.949C872.575 330.463 873.15 330.1 873.83 329.86C874.51 329.615 875.262 329.492 876.085 329.492C876.652 329.492 877.217 329.558 877.78 329.691C878.342 329.824 878.856 330.044 879.322 330.351C879.787 330.653 880.16 331.064 880.441 331.586C880.728 332.107 880.871 332.759 880.871 333.542V341.426H878.202V339.808H878.11C877.941 340.135 877.703 340.442 877.396 340.728C877.095 341.01 876.714 341.237 876.254 341.411C875.798 341.58 875.264 341.664 874.651 341.664ZM875.372 339.624C875.929 339.624 876.412 339.514 876.821 339.294C877.23 339.069 877.545 338.773 877.765 338.404C877.99 338.036 878.102 337.635 878.102 337.2V335.812C878.015 335.883 877.867 335.95 877.657 336.011C877.453 336.073 877.223 336.126 876.967 336.172C876.711 336.218 876.458 336.259 876.208 336.295C875.957 336.331 875.74 336.362 875.556 336.387C875.141 336.443 874.771 336.535 874.443 336.663C874.116 336.791 873.858 336.97 873.669 337.2C873.48 337.425 873.385 337.717 873.385 338.075C873.385 338.586 873.572 338.972 873.945 339.233C874.318 339.493 874.794 339.624 875.372 339.624ZM883.011 338.197H885.764C885.79 338.637 885.987 338.977 886.355 339.217C886.723 339.458 887.201 339.578 887.789 339.578C888.388 339.578 888.891 339.447 889.3 339.187C889.714 338.921 889.922 338.519 889.922 337.982C889.922 337.665 889.842 337.387 889.684 337.146C889.525 336.901 889.303 336.712 889.016 336.579C888.73 336.446 888.393 336.379 888.004 336.379H886.202V334.408H888.004C888.582 334.408 889.019 334.275 889.316 334.009C889.617 333.744 889.768 333.409 889.768 333.005C889.768 332.57 889.61 332.217 889.293 331.946C888.981 331.675 888.549 331.54 887.996 331.54C887.444 331.54 886.984 331.665 886.616 331.916C886.253 332.166 886.064 332.488 886.048 332.882H883.31C883.32 332.197 883.525 331.601 883.924 331.095C884.328 330.589 884.87 330.195 885.55 329.914C886.235 329.632 887.007 329.492 887.866 329.492C888.786 329.492 889.582 329.63 890.251 329.906C890.921 330.182 891.438 330.568 891.801 331.064C892.164 331.555 892.345 332.133 892.345 332.798C892.345 333.437 892.146 333.966 891.747 334.385C891.348 334.799 890.811 335.096 890.136 335.275V335.398C890.602 335.423 891.021 335.556 891.394 335.797C891.767 336.032 892.064 336.351 892.284 336.755C892.504 337.159 892.614 337.627 892.614 338.159C892.614 338.88 892.407 339.504 891.992 340.03C891.578 340.552 891.008 340.953 890.282 341.235C889.561 341.516 888.735 341.656 887.805 341.656C886.9 341.656 886.089 341.521 885.373 341.25C884.662 340.974 884.097 340.578 883.678 340.061C883.259 339.545 883.036 338.923 883.011 338.197ZM894.8 341.426V329.645H899.747C901.143 329.645 902.245 329.924 903.053 330.481C903.866 331.039 904.272 331.816 904.272 332.813C904.272 333.473 904.042 334.012 903.582 334.431C903.127 334.845 902.505 335.124 901.718 335.267C902.337 335.318 902.879 335.474 903.344 335.735C903.815 335.996 904.183 336.339 904.449 336.763C904.714 337.187 904.847 337.676 904.847 338.228C904.847 338.877 904.676 339.442 904.334 339.923C903.996 340.399 903.503 340.769 902.853 341.035C902.209 341.296 901.427 341.426 900.506 341.426H894.8ZM897.4 339.24H900.506C901.018 339.24 901.419 339.12 901.71 338.88C902.002 338.634 902.148 338.302 902.148 337.883C902.148 337.397 902.002 337.016 901.71 336.74C901.419 336.459 901.018 336.318 900.506 336.318H897.4V339.24ZM897.4 334.523H899.801C900.179 334.523 900.504 334.47 900.775 334.362C901.046 334.25 901.253 334.094 901.396 333.894C901.539 333.69 901.611 333.447 901.611 333.166C901.611 332.762 901.444 332.445 901.112 332.215C900.785 331.985 900.33 331.869 899.747 331.869H897.4V334.523ZM910.529 341.664C909.782 341.664 909.11 341.531 908.512 341.265C907.919 340.994 907.448 340.595 907.1 340.069C906.758 339.542 906.587 338.893 906.587 338.121C906.587 337.456 906.709 336.906 906.955 336.471C907.2 336.037 907.535 335.689 907.96 335.428C908.384 335.168 908.862 334.971 909.394 334.838C909.931 334.7 910.486 334.6 911.058 334.539C911.748 334.467 912.308 334.403 912.738 334.347C913.167 334.286 913.479 334.194 913.674 334.071C913.873 333.943 913.973 333.746 913.973 333.48V333.434C913.973 332.856 913.802 332.409 913.459 332.092C913.116 331.775 912.623 331.616 911.979 331.616C911.299 331.616 910.759 331.765 910.36 332.061C909.966 332.358 909.701 332.708 909.563 333.112L906.97 332.744C907.175 332.028 907.512 331.43 907.983 330.949C908.453 330.463 909.028 330.1 909.708 329.86C910.388 329.615 911.14 329.492 911.963 329.492C912.531 329.492 913.096 329.558 913.658 329.691C914.221 329.824 914.735 330.044 915.2 330.351C915.665 330.653 916.039 331.064 916.32 331.586C916.606 332.107 916.749 332.759 916.749 333.542V341.426H914.08V339.808H913.988C913.819 340.135 913.582 340.442 913.275 340.728C912.973 341.01 912.592 341.237 912.132 341.411C911.677 341.58 911.143 341.664 910.529 341.664ZM911.25 339.624C911.807 339.624 912.291 339.514 912.7 339.294C913.109 339.069 913.423 338.773 913.643 338.404C913.868 338.036 913.98 337.635 913.98 337.2V335.812C913.894 335.883 913.745 335.95 913.536 336.011C913.331 336.073 913.101 336.126 912.845 336.172C912.59 336.218 912.337 336.259 912.086 336.295C911.835 336.331 911.618 336.362 911.434 336.387C911.02 336.443 910.649 336.535 910.322 336.663C909.995 336.791 909.736 336.97 909.547 337.2C909.358 337.425 909.263 337.717 909.263 338.075C909.263 338.586 909.45 338.972 909.823 339.233C910.197 339.493 910.672 339.624 911.25 339.624ZM927.633 334.385V336.663H921.359V334.385H927.633ZM922.218 329.645V341.426H919.541V329.645H922.218ZM929.451 329.645V341.426H926.782V329.645H929.451ZM934.937 337.668L939.654 329.645H942.507V341.426H939.823V333.396L935.121 341.426H932.26V329.645H934.937V337.668ZM950.574 341.656C949.393 341.656 948.373 341.411 947.514 340.92C946.66 340.424 946.003 339.724 945.543 338.819C945.082 337.908 944.852 336.837 944.852 335.605C944.852 334.393 945.082 333.329 945.543 332.414C946.008 331.494 946.657 330.778 947.491 330.266C948.324 329.75 949.303 329.492 950.428 329.492C951.155 329.492 951.84 329.609 952.484 329.845C953.133 330.075 953.706 330.433 954.202 330.918C954.703 331.404 955.097 332.023 955.383 332.775C955.67 333.521 955.813 334.411 955.813 335.444V336.295H946.156V334.424H953.151C953.146 333.892 953.031 333.419 952.806 333.005C952.581 332.585 952.267 332.256 951.863 332.015C951.464 331.775 950.999 331.655 950.467 331.655C949.899 331.655 949.401 331.793 948.971 332.069C948.542 332.34 948.207 332.698 947.966 333.143C947.731 333.582 947.611 334.066 947.606 334.592V336.226C947.606 336.911 947.731 337.499 947.982 337.99C948.232 338.476 948.582 338.849 949.032 339.11C949.482 339.366 950.009 339.493 950.612 339.493C951.016 339.493 951.382 339.437 951.709 339.325C952.037 339.207 952.32 339.036 952.561 338.811C952.801 338.586 952.983 338.307 953.105 337.975L955.698 338.266C955.534 338.951 955.222 339.55 954.762 340.061C954.307 340.567 953.724 340.961 953.013 341.242C952.302 341.518 951.489 341.656 950.574 341.656ZM963.519 341.426V329.645H966.296V334.401H967.308L970.852 329.645H974.196L969.832 335.428L974.242 341.426H970.882L967.653 336.985H966.296V341.426H963.519ZM983.908 334.385V336.663H977.634V334.385H983.908ZM978.493 329.645V341.426H975.816V329.645H978.493ZM985.726 329.645V341.426H983.057V329.645H985.726ZM991.212 337.668L995.929 329.645H998.782V341.426H996.098V333.396L991.396 341.426H988.535V329.645H991.212V337.668ZM1009.43 329.645V331.923H1004.35V341.426H1001.63V329.645H1009.43ZM1014.33 337.668L1019.05 329.645H1021.9V341.426H1019.22V333.396L1014.51 341.426H1011.65V329.645H1014.33V337.668Z" fill="black"/>
<path d="M856.025 372.826H854.252L859.379 358.863H861.124L866.251 372.826H864.479L860.306 361.072H860.197L856.025 372.826ZM856.679 367.372H863.824V368.872H856.679V367.372ZM868.208 372.826V362.354H872.49C873.617 362.354 874.512 362.608 875.176 363.117C875.84 363.626 876.171 364.299 876.171 365.135C876.171 365.772 875.983 366.265 875.605 366.615C875.228 366.96 874.744 367.194 874.153 367.317C874.54 367.372 874.915 367.508 875.278 367.726C875.646 367.944 875.951 368.244 876.192 368.626C876.433 369.003 876.553 369.467 876.553 370.017C876.553 370.553 876.417 371.033 876.144 371.455C875.871 371.878 875.48 372.212 874.971 372.458C874.462 372.703 873.853 372.826 873.144 372.826H868.208ZM869.735 371.353H873.144C873.699 371.353 874.133 371.221 874.446 370.958C874.76 370.694 874.917 370.335 874.917 369.881C874.917 369.34 874.76 368.915 874.446 368.606C874.133 368.292 873.699 368.135 873.144 368.135H869.735V371.353ZM869.735 366.744H872.49C872.922 366.744 873.292 366.685 873.601 366.567C873.91 366.444 874.146 366.272 874.31 366.049C874.478 365.822 874.562 365.554 874.562 365.244C874.562 364.804 874.378 364.458 874.01 364.208C873.642 363.954 873.135 363.826 872.49 363.826H869.735V366.744ZM878.389 363.854V362.354H886.897V363.854H883.461V372.826H881.852V363.854H878.389ZM892.955 373.044C892.01 373.044 891.18 372.819 890.467 372.369C889.757 371.919 889.203 371.29 888.803 370.481C888.408 369.671 888.21 368.726 888.21 367.644C888.21 366.553 888.408 365.601 888.803 364.788C889.203 363.974 889.757 363.342 890.467 362.892C891.18 362.442 892.01 362.217 892.955 362.217C893.9 362.217 894.728 362.442 895.437 362.892C896.15 363.342 896.705 363.974 897.1 364.788C897.5 365.601 897.7 366.553 897.7 367.644C897.7 368.726 897.5 369.671 897.1 370.481C896.705 371.29 896.15 371.919 895.437 372.369C894.728 372.819 893.9 373.044 892.955 373.044ZM892.955 371.599C893.673 371.599 894.264 371.415 894.728 371.046C895.191 370.678 895.534 370.194 895.757 369.594C895.98 368.994 896.091 368.344 896.091 367.644C896.091 366.944 895.98 366.292 895.757 365.688C895.534 365.083 895.191 364.594 894.728 364.222C894.264 363.849 893.673 363.663 892.955 363.663C892.237 363.663 891.646 363.849 891.182 364.222C890.719 364.594 890.376 365.083 890.153 365.688C889.93 366.292 889.819 366.944 889.819 367.644C889.819 368.344 889.93 368.994 890.153 369.594C890.376 370.194 890.719 370.678 891.182 371.046C891.646 371.415 892.237 371.599 892.955 371.599ZM900.156 376.753V362.354H901.711V364.017H901.902C902.02 363.835 902.183 363.604 902.393 363.322C902.606 363.035 902.911 362.781 903.306 362.558C903.706 362.331 904.247 362.217 904.929 362.217C905.811 362.217 906.588 362.438 907.26 362.879C907.933 363.32 908.458 363.945 908.835 364.754C909.213 365.563 909.401 366.517 909.401 367.617C909.401 368.726 909.213 369.687 908.835 370.501C908.458 371.31 907.935 371.937 907.267 372.383C906.599 372.824 905.829 373.044 904.956 373.044C904.283 373.044 903.745 372.933 903.34 372.71C902.936 372.483 902.624 372.226 902.406 371.94C902.188 371.649 902.02 371.408 901.902 371.217H901.765V376.753H900.156ZM901.738 367.59C901.738 368.381 901.854 369.078 902.086 369.683C902.318 370.283 902.656 370.753 903.102 371.094C903.547 371.43 904.092 371.599 904.738 371.599C905.411 371.599 905.972 371.421 906.422 371.067C906.876 370.708 907.217 370.226 907.445 369.621C907.676 369.012 907.792 368.335 907.792 367.59C907.792 366.853 907.679 366.19 907.451 365.599C907.229 365.004 906.89 364.533 906.436 364.188C905.986 363.838 905.42 363.663 904.738 363.663C904.083 363.663 903.533 363.829 903.088 364.16C902.643 364.488 902.306 364.947 902.079 365.538C901.852 366.124 901.738 366.808 901.738 367.59Z" fill="black"/>
<path d="M861.835 385.394V396.719H860.464V385.394H861.835ZM854.182 396.719L857.853 390.813L854.491 385.394H856.15L859.092 390.415H863.228L866.17 385.394H867.829L864.445 390.835L868.117 396.719H866.546L863.472 391.698H858.827L855.73 396.719H854.182ZM872.237 396.918C871.698 396.918 871.21 396.817 870.771 396.614C870.333 396.407 869.984 396.111 869.726 395.724C869.468 395.333 869.339 394.861 869.339 394.308C869.339 393.821 869.435 393.427 869.627 393.124C869.818 392.818 870.075 392.579 870.395 392.406C870.716 392.232 871.07 392.103 871.457 392.018C871.848 391.93 872.24 391.86 872.635 391.808C873.151 391.742 873.569 391.692 873.89 391.659C874.215 391.622 874.451 391.561 874.598 391.477C874.749 391.392 874.825 391.244 874.825 391.034V390.99C874.825 390.444 874.675 390.02 874.377 389.718C874.082 389.416 873.634 389.265 873.033 389.265C872.41 389.265 871.922 389.401 871.568 389.674C871.214 389.947 870.965 390.238 870.821 390.548L869.582 390.105C869.804 389.589 870.098 389.187 870.467 388.9C870.839 388.608 871.245 388.406 871.684 388.291C872.126 388.173 872.561 388.114 872.989 388.114C873.262 388.114 873.575 388.148 873.929 388.214C874.286 388.277 874.631 388.407 874.963 388.607C875.298 388.806 875.577 389.106 875.798 389.508C876.019 389.91 876.13 390.448 876.13 391.123V396.719H874.825V395.569H874.758C874.67 395.753 874.522 395.95 874.316 396.16C874.11 396.371 873.835 396.549 873.492 396.697C873.149 396.844 872.731 396.918 872.237 396.918ZM872.436 395.746C872.952 395.746 873.387 395.644 873.741 395.442C874.098 395.239 874.368 394.977 874.548 394.656C874.733 394.336 874.825 393.998 874.825 393.644V392.45C874.769 392.516 874.648 392.577 874.46 392.632C874.275 392.684 874.062 392.73 873.818 392.771C873.579 392.807 873.345 392.841 873.116 392.87C872.891 392.896 872.709 392.918 872.569 392.936C872.229 392.981 871.912 393.053 871.617 393.152C871.326 393.248 871.09 393.394 870.91 393.589C870.733 393.781 870.644 394.042 870.644 394.374C870.644 394.828 870.812 395.171 871.147 395.403C871.486 395.631 871.916 395.746 872.436 395.746ZM884.197 391.875V393.091H879.507V391.875H884.197ZM879.817 388.225V396.719H878.512V388.225H879.817ZM885.192 388.225V396.719H883.887V388.225H885.192ZM887.575 399.904V388.225H888.836V389.574H888.991C889.087 389.427 889.22 389.239 889.389 389.01C889.562 388.778 889.809 388.572 890.13 388.391C890.455 388.207 890.893 388.114 891.446 388.114C892.162 388.114 892.792 388.293 893.338 388.651C893.883 389.008 894.309 389.515 894.615 390.171C894.921 390.828 895.074 391.602 895.074 392.494C895.074 393.394 894.921 394.173 894.615 394.833C894.309 395.489 893.885 395.998 893.343 396.359C892.801 396.717 892.176 396.896 891.468 396.896C890.923 396.896 890.486 396.806 890.158 396.625C889.83 396.441 889.577 396.232 889.4 396C889.223 395.764 889.087 395.569 888.991 395.414H888.88V399.904H887.575ZM888.858 392.472C888.858 393.113 888.952 393.679 889.14 394.17C889.328 394.656 889.603 395.038 889.964 395.314C890.326 395.587 890.768 395.724 891.291 395.724C891.837 395.724 892.292 395.58 892.657 395.292C893.026 395.001 893.303 394.61 893.487 394.12C893.675 393.626 893.769 393.077 893.769 392.472C893.769 391.875 893.677 391.336 893.492 390.857C893.312 390.374 893.037 389.993 892.668 389.713C892.303 389.429 891.844 389.287 891.291 389.287C890.761 389.287 890.315 389.421 889.953 389.69C889.592 389.956 889.319 390.328 889.135 390.807C888.95 391.283 888.858 391.838 888.858 392.472Z" fill="#888888"/>
</g>
<g filter="url(#filter4_f_47_341)">
<rect x="10.5065" y="48.4908" width="201.306" height="332.874" rx="20.3657" stroke="#ADADAD" stroke-width="0.70741"/>
<g clip-path="url(#clip2_47_341)">
<rect x="20.5127" y="58.4967" width="181.048" height="225.113" rx="19.1585" fill="#E1E1E1"/>
<path d="M54.7966 252.849L60.1687 220.106H65.2849L59.9128 252.849H54.7966ZM40.1355 244.727L40.9829 239.611H66.5639L65.7165 244.727H40.1355ZM43.2852 252.849L48.6572 220.106H53.7734L48.4014 252.849H43.2852ZM42.0061 233.344L42.8695 228.227H68.4505L67.5871 233.344H42.0061Z" fill="#545454"/>
<g filter="url(#filter5_f_47_341)">
<rect x="72.3975" y="9.37671" width="97.1625" height="97.1625" rx="48.5813" fill="#62FF48"/>
</g>
</g>
<path d="M21.7496 316.149V303.609H24.0212V308.918H29.8321V303.609H32.1099V316.149H29.8321V310.822H24.0212V316.149H21.7496ZM37.189 316.339C36.593 316.339 36.0562 316.233 35.5786 316.021C35.1051 315.804 34.7295 315.486 34.452 315.065C34.1785 314.645 34.0417 314.127 34.0417 313.51C34.0417 312.979 34.1397 312.541 34.3356 312.194C34.5316 311.847 34.7989 311.569 35.1377 311.361C35.4766 311.153 35.8582 310.996 36.2828 310.889C36.7114 310.779 37.1543 310.7 37.6115 310.651C38.1626 310.593 38.6096 310.542 38.9524 310.498C39.2953 310.449 39.5443 310.375 39.6995 310.277C39.8587 310.175 39.9383 310.018 39.9383 309.806V309.769C39.9383 309.308 39.8015 308.95 39.528 308.697C39.2545 308.444 38.8606 308.318 38.3463 308.318C37.8033 308.318 37.3727 308.436 37.0543 308.673C36.74 308.91 36.5277 309.189 36.4175 309.512L34.3479 309.218C34.5112 308.646 34.7806 308.169 35.1561 307.785C35.5317 307.397 35.9909 307.107 36.5338 306.916C37.0767 306.72 37.6768 306.622 38.334 306.622C38.7871 306.622 39.2382 306.675 39.6872 306.781C40.1363 306.887 40.5465 307.062 40.918 307.307C41.2894 307.548 41.5874 307.877 41.8119 308.293C42.0405 308.71 42.1548 309.23 42.1548 309.855V316.149H40.024V314.857H39.9505C39.8158 315.118 39.626 315.363 39.3811 315.592C39.1402 315.816 38.8361 315.998 38.4687 316.137C38.1054 316.272 37.6788 316.339 37.189 316.339ZM37.7646 314.71C38.2095 314.71 38.5953 314.622 38.9218 314.447C39.2484 314.267 39.4994 314.031 39.675 313.737C39.8546 313.443 39.9444 313.122 39.9444 312.775V311.667C39.875 311.724 39.7566 311.777 39.5893 311.826C39.426 311.875 39.2423 311.918 39.0382 311.955C38.8341 311.992 38.632 312.024 38.432 312.053C38.232 312.081 38.0585 312.106 37.9115 312.126C37.5809 312.171 37.2849 312.245 37.0237 312.347C36.7624 312.449 36.5563 312.592 36.4052 312.775C36.2542 312.955 36.1787 313.188 36.1787 313.473C36.1787 313.882 36.3277 314.19 36.6257 314.398C36.9237 314.606 37.3033 314.71 37.7646 314.71ZM43.8632 313.571H46.0614C46.0818 313.922 46.239 314.194 46.5329 314.386C46.8268 314.578 47.2084 314.674 47.6779 314.674C48.1555 314.674 48.5576 314.569 48.8841 314.361C49.2148 314.149 49.3801 313.829 49.3801 313.4C49.3801 313.147 49.3168 312.924 49.1903 312.732C49.0637 312.537 48.8862 312.386 48.6576 312.279C48.429 312.173 48.1596 312.12 47.8493 312.12H46.4104V310.547H47.8493C48.3106 310.547 48.6596 310.44 48.8964 310.228C49.1372 310.016 49.2576 309.748 49.2576 309.426C49.2576 309.079 49.1311 308.797 48.878 308.581C48.629 308.365 48.2841 308.256 47.8432 308.256C47.4023 308.256 47.035 308.357 46.741 308.557C46.4512 308.757 46.3002 309.014 46.2879 309.328H44.102C44.1102 308.781 44.2734 308.305 44.5918 307.901C44.9143 307.497 45.347 307.183 45.8899 306.958C46.4369 306.734 47.0533 306.622 47.7391 306.622C48.4739 306.622 49.1087 306.732 49.6434 306.952C50.1782 307.173 50.5904 307.481 50.8803 307.877C51.1701 308.269 51.315 308.73 51.315 309.261C51.315 309.771 51.1558 310.193 50.8374 310.528C50.519 310.859 50.0904 311.096 49.5516 311.238V311.336C49.923 311.357 50.2578 311.463 50.5557 311.655C50.8537 311.843 51.0905 312.098 51.266 312.42C51.4416 312.743 51.5293 313.116 51.5293 313.541C51.5293 314.116 51.364 314.614 51.0334 315.035C50.7027 315.451 50.2476 315.772 49.6679 315.996C49.0923 316.221 48.4331 316.333 47.6901 316.333C46.9676 316.333 46.3206 316.225 45.7491 316.008C45.1817 315.788 44.7306 315.472 44.3959 315.059C44.0612 314.647 43.8836 314.151 43.8632 313.571ZM53.2744 316.149V306.744H57.2238C58.3382 306.744 59.2179 306.967 59.8629 307.412C60.5119 307.856 60.8365 308.477 60.8365 309.273C60.8365 309.8 60.6528 310.23 60.2854 310.565C59.9221 310.896 59.4261 311.118 58.7975 311.232C59.2914 311.273 59.7241 311.398 60.0956 311.606C60.4711 311.814 60.765 312.088 60.9773 312.426C61.1896 312.765 61.2957 313.155 61.2957 313.596C61.2957 314.114 61.1589 314.565 60.8854 314.949C60.616 315.329 60.2221 315.625 59.7037 315.837C59.1893 316.045 58.5648 316.149 57.83 316.149H53.2744ZM55.3501 314.404H57.83C58.2382 314.404 58.5587 314.308 58.7913 314.116C59.024 313.92 59.1404 313.655 59.1404 313.32C59.1404 312.933 59.024 312.628 58.7913 312.408C58.5587 312.183 58.2382 312.071 57.83 312.071H55.3501V314.404ZM55.3501 310.638H57.2667C57.5688 310.638 57.828 310.596 58.0443 310.51C58.2607 310.42 58.426 310.295 58.5403 310.136C58.6546 309.973 58.7117 309.779 58.7117 309.555C58.7117 309.232 58.5791 308.979 58.3137 308.795C58.0525 308.612 57.6892 308.52 57.2238 308.52H55.3501V310.638ZM65.8314 316.339C65.2354 316.339 64.6986 316.233 64.221 316.021C63.7475 315.804 63.3719 315.486 63.0944 315.065C62.8209 314.645 62.6841 314.127 62.6841 313.51C62.6841 312.979 62.7821 312.541 62.978 312.194C63.174 311.847 63.4413 311.569 63.7801 311.361C64.119 311.153 64.5006 310.996 64.9252 310.889C65.3538 310.779 65.7967 310.7 66.2539 310.651C66.805 310.593 67.2519 310.542 67.5948 310.498C67.9377 310.449 68.1867 310.375 68.3419 310.277C68.5011 310.175 68.5807 310.018 68.5807 309.806V309.769C68.5807 309.308 68.4439 308.95 68.1704 308.697C67.8969 308.444 67.503 308.318 66.9887 308.318C66.4457 308.318 66.0151 308.436 65.6967 308.673C65.3824 308.91 65.1701 309.189 65.0599 309.512L62.9903 309.218C63.1535 308.646 63.423 308.169 63.7985 307.785C64.1741 307.397 64.6333 307.107 65.1762 306.916C65.7191 306.72 66.3192 306.622 66.9764 306.622C67.4295 306.622 67.8806 306.675 68.3296 306.781C68.7786 306.887 69.1889 307.062 69.5604 307.307C69.9318 307.548 70.2298 307.877 70.4543 308.293C70.6829 308.71 70.7972 309.23 70.7972 309.855V316.149H68.6664V314.857H68.5929C68.4582 315.118 68.2684 315.363 68.0235 315.592C67.7826 315.816 67.4785 315.998 67.1111 316.137C66.7478 316.272 66.3212 316.339 65.8314 316.339ZM66.407 314.71C66.8519 314.71 67.2377 314.622 67.5642 314.447C67.8908 314.267 68.1418 314.031 68.3174 313.737C68.497 313.443 68.5868 313.122 68.5868 312.775V311.667C68.5174 311.724 68.399 311.777 68.2316 311.826C68.0684 311.875 67.8847 311.918 67.6806 311.955C67.4765 311.992 67.2744 312.024 67.0744 312.053C66.8744 312.081 66.7009 312.106 66.5539 312.126C66.2233 312.171 65.9273 312.245 65.6661 312.347C65.4048 312.449 65.1987 312.592 65.0476 312.775C64.8966 312.955 64.8211 313.188 64.8211 313.473C64.8211 313.882 64.9701 314.19 65.2681 314.398C65.566 314.606 65.9457 314.71 66.407 314.71ZM79.4859 310.528V312.347H74.4772V310.528H79.4859ZM75.163 306.744V316.149H73.026V306.744H75.163ZM80.9371 306.744V316.149H78.8063V306.744H80.9371ZM85.3167 313.149L89.0824 306.744H91.3602V316.149H89.2171V309.738L85.4636 316.149H83.1797V306.744H85.3167V313.149ZM97.8002 316.333C96.8572 316.333 96.0428 316.137 95.357 315.745C94.6753 315.349 94.1508 314.79 93.7834 314.067C93.416 313.341 93.2323 312.486 93.2323 311.502C93.2323 310.534 93.416 309.685 93.7834 308.955C94.1549 308.22 94.6733 307.648 95.3387 307.24C96.004 306.828 96.7858 306.622 97.6838 306.622C98.2635 306.622 98.8105 306.716 99.3248 306.903C99.8432 307.087 100.3 307.373 100.696 307.761C101.096 308.148 101.411 308.642 101.639 309.242C101.868 309.838 101.982 310.549 101.982 311.373V312.053H94.2732V310.559H99.8575C99.8534 310.134 99.7616 309.757 99.582 309.426C99.4024 309.091 99.1513 308.828 98.8288 308.636C98.5104 308.444 98.139 308.348 97.7144 308.348C97.2613 308.348 96.8633 308.459 96.5204 308.679C96.1775 308.895 95.9102 309.181 95.7183 309.536C95.5305 309.887 95.4346 310.273 95.4305 310.693V311.998C95.4305 312.545 95.5305 313.014 95.7305 313.406C95.9306 313.794 96.2102 314.092 96.5694 314.3C96.9286 314.504 97.3491 314.606 97.8308 314.606C98.1533 314.606 98.4451 314.561 98.7064 314.471C98.9676 314.378 99.1942 314.241 99.386 314.061C99.5779 313.882 99.7228 313.659 99.8208 313.394L101.89 313.626C101.76 314.173 101.511 314.651 101.143 315.059C100.78 315.463 100.315 315.778 99.7473 316.002C99.1799 316.223 98.5308 316.333 97.8002 316.333ZM108.134 316.149V306.744H110.351V310.54H111.159L113.988 306.744H116.658L113.174 311.361L116.695 316.149H114.013L111.435 312.604H110.351V316.149H108.134ZM124.411 310.528V312.347H119.402V310.528H124.411ZM120.088 306.744V316.149H117.951V306.744H120.088ZM125.862 306.744V316.149H123.732V306.744H125.862ZM130.242 313.149L134.008 306.744H136.285V316.149H134.142V309.738L130.389 316.149H128.105V306.744H130.242V313.149ZM144.783 306.744V308.563H140.729V316.149H138.562V306.744H144.783ZM148.697 313.149L152.463 306.744H154.741V316.149H152.597V309.738L148.844 316.149H146.56V306.744H148.697V313.149Z" fill="black"/>
<path d="M22.3197 341.855H20.9046L24.9975 330.708H26.3909L30.4838 341.855H29.0687L25.7378 332.471H25.6507L22.3197 341.855ZM22.8422 337.5H28.5462V338.698H22.8422V337.5ZM32.0459 341.855V333.495H35.464C36.3638 333.495 37.0787 333.698 37.6084 334.104C38.1382 334.511 38.4031 335.048 38.4031 335.715C38.4031 336.223 38.2525 336.617 37.9513 336.896C37.6502 337.172 37.2637 337.359 36.792 337.457C37.1004 337.5 37.3998 337.609 37.6901 337.783C37.984 337.958 38.2271 338.197 38.4194 338.502C38.6117 338.803 38.7079 339.173 38.7079 339.612C38.7079 340.04 38.599 340.423 38.3813 340.761C38.1636 341.098 37.8515 341.365 37.4451 341.561C37.0388 341.757 36.5525 341.855 35.9865 341.855H32.0459ZM33.2651 340.679H35.9865C36.4292 340.679 36.7757 340.574 37.0261 340.363C37.2764 340.153 37.4016 339.866 37.4016 339.503C37.4016 339.072 37.2764 338.732 37.0261 338.486C36.7757 338.235 36.4292 338.11 35.9865 338.11H33.2651V340.679ZM33.2651 337H35.464C35.8087 337 36.1044 336.953 36.3511 336.858C36.5979 336.76 36.7866 336.622 36.9172 336.445C37.0515 336.263 37.1186 336.049 37.1186 335.802C37.1186 335.45 36.9716 335.175 36.6777 334.975C36.3838 334.772 35.9792 334.67 35.464 334.67H33.2651V337ZM40.1733 334.692V333.495H46.9659V334.692H44.2228V341.855H42.9383V334.692H40.1733ZM51.8018 342.029C51.0471 342.029 50.3849 341.849 49.8152 341.49C49.2491 341.131 48.8065 340.628 48.4872 339.982C48.1715 339.336 48.0136 338.582 48.0136 337.718C48.0136 336.847 48.1715 336.087 48.4872 335.438C48.8065 334.788 49.2491 334.284 49.8152 333.925C50.3849 333.565 51.0471 333.386 51.8018 333.386C52.5565 333.386 53.2169 333.565 53.783 333.925C54.3526 334.284 54.7953 334.788 55.111 335.438C55.4303 336.087 55.59 336.847 55.59 337.718C55.59 338.582 55.4303 339.336 55.111 339.982C54.7953 340.628 54.3526 341.131 53.783 341.49C53.2169 341.849 52.5565 342.029 51.8018 342.029ZM51.8018 340.875C52.3751 340.875 52.8468 340.728 53.2169 340.434C53.587 340.14 53.861 339.754 54.0388 339.275C54.2166 338.796 54.3055 338.277 54.3055 337.718C54.3055 337.159 54.2166 336.639 54.0388 336.156C53.861 335.674 53.587 335.283 53.2169 334.986C52.8468 334.688 52.3751 334.54 51.8018 334.54C51.2285 334.54 50.7568 334.688 50.3867 334.986C50.0166 335.283 49.7426 335.674 49.5648 336.156C49.387 336.639 49.2981 337.159 49.2981 337.718C49.2981 338.277 49.387 338.796 49.5648 339.275C49.7426 339.754 50.0166 340.14 50.3867 340.434C50.7568 340.728 51.2285 340.875 51.8018 340.875ZM57.5507 344.99V333.495H58.7917V334.823H58.9441C59.0384 334.677 59.169 334.492 59.336 334.267C59.5065 334.039 59.7496 333.836 60.0653 333.658C60.3846 333.476 60.8164 333.386 61.3607 333.386C62.0646 333.386 62.6851 333.562 63.2221 333.914C63.7591 334.266 64.1782 334.765 64.4794 335.41C64.7805 336.056 64.9311 336.818 64.9311 337.696C64.9311 338.582 64.7805 339.349 64.4794 339.999C64.1782 340.645 63.7609 341.145 63.2275 341.501C62.6941 341.853 62.0791 342.029 61.3824 342.029C60.8454 342.029 60.4154 341.94 60.0925 341.762C59.7696 341.581 59.521 341.376 59.3468 341.147C59.1727 340.915 59.0384 340.723 58.9441 340.57H58.8352V344.99H57.5507ZM58.8134 337.675C58.8134 338.306 58.906 338.863 59.091 339.346C59.2761 339.825 59.5464 340.2 59.902 340.472C60.2576 340.741 60.693 340.875 61.2083 340.875C61.7453 340.875 62.1934 340.733 62.5526 340.45C62.9155 340.164 63.1876 339.779 63.369 339.297C63.5541 338.81 63.6466 338.27 63.6466 337.675C63.6466 337.087 63.5559 336.557 63.3745 336.085C63.1967 335.61 62.9264 335.234 62.5635 334.959C62.2043 334.679 61.7525 334.54 61.2083 334.54C60.6858 334.54 60.2467 334.672 59.8911 334.937C59.5355 335.198 59.267 335.565 59.0856 336.036C58.9042 336.504 58.8134 337.051 58.8134 337.675Z" fill="black"/>
<path d="M26.9581 351.921V360.963H25.8632V351.921H26.9581ZM20.8482 360.963L23.7795 356.248L21.0954 351.921H22.4198L24.7684 355.93H28.0706L30.4191 351.921H31.7435L29.0418 356.265L31.9731 360.963H30.7193L28.2648 356.954H24.5565L22.0843 360.963H20.8482ZM35.262 361.122C34.8323 361.122 34.4423 361.041 34.0921 360.879C33.7419 360.714 33.4638 360.477 33.2578 360.168C33.0517 359.856 32.9487 359.479 32.9487 359.038C32.9487 358.649 33.0253 358.334 33.1783 358.093C33.3313 357.849 33.5359 357.657 33.7919 357.519C34.048 357.381 34.3305 357.278 34.6395 357.21C34.9515 357.14 35.2649 357.084 35.5799 357.042C35.9919 356.989 36.3259 356.95 36.582 356.923C36.841 356.894 37.0293 356.845 37.1471 356.778C37.2677 356.71 37.3281 356.592 37.3281 356.424V356.389C37.3281 355.953 37.2089 355.615 36.9705 355.374C36.735 355.132 36.3774 355.012 35.8977 355.012C35.4003 355.012 35.0104 355.121 34.7278 355.338C34.4453 355.556 34.2466 355.789 34.1319 356.036L33.143 355.683C33.3196 355.271 33.555 354.95 33.8493 354.72C34.1466 354.488 34.4703 354.326 34.8205 354.235C35.1737 354.14 35.521 354.093 35.8624 354.093C36.0802 354.093 36.3303 354.12 36.6129 354.173C36.8984 354.223 37.1735 354.327 37.4384 354.486C37.7062 354.645 37.9284 354.885 38.105 355.206C38.2816 355.527 38.3699 355.956 38.3699 356.495V360.963H37.3281V360.044H37.2751C37.2044 360.191 37.0867 360.349 36.9219 360.517C36.7571 360.684 36.5378 360.827 36.2641 360.945C35.9904 361.063 35.6564 361.122 35.262 361.122ZM35.4209 360.186C35.833 360.186 36.1802 360.105 36.4628 359.943C36.7483 359.781 36.9631 359.572 37.1073 359.316C37.2545 359.06 37.3281 358.791 37.3281 358.508V357.554C37.2839 357.607 37.1868 357.656 37.0367 357.7C36.8895 357.741 36.7188 357.778 36.5246 357.811C36.3333 357.84 36.1464 357.866 35.9639 357.89C35.7844 357.911 35.6387 357.928 35.5269 357.943C35.2561 357.978 35.003 358.036 34.7676 358.115C34.5351 358.192 34.3467 358.308 34.2025 358.464C34.0612 358.617 33.9906 358.826 33.9906 359.091C33.9906 359.453 34.1245 359.726 34.3923 359.912C34.6631 360.094 35.006 360.186 35.4209 360.186ZM44.8098 357.095V358.067H41.0661V357.095H44.8098ZM41.3134 354.182V360.963H40.2715V354.182H41.3134ZM45.6044 354.182V360.963H44.5625V354.182H45.6044ZM47.5071 363.505V354.182H48.5136V355.259H48.6373C48.7138 355.141 48.8197 354.991 48.9551 354.809C49.0934 354.623 49.2906 354.458 49.5467 354.314C49.8057 354.167 50.1559 354.093 50.5973 354.093C51.1683 354.093 51.6716 354.236 52.1072 354.522C52.5427 354.807 52.8827 355.212 53.1269 355.736C53.3712 356.26 53.4934 356.878 53.4934 357.59C53.4934 358.308 53.3712 358.93 53.1269 359.457C52.8827 359.981 52.5442 360.387 52.1116 360.676C51.6789 360.961 51.1801 361.104 50.615 361.104C50.1794 361.104 49.8307 361.032 49.5687 360.888C49.3068 360.74 49.1052 360.574 48.9639 360.389C48.8227 360.2 48.7138 360.044 48.6373 359.921H48.549V363.505H47.5071ZM48.5313 357.572C48.5313 358.084 48.6063 358.536 48.7564 358.927C48.9065 359.316 49.1258 359.621 49.4142 359.841C49.7026 360.059 50.0558 360.168 50.4737 360.168C50.9093 360.168 51.2728 360.053 51.5642 359.824C51.8585 359.591 52.0792 359.279 52.2264 358.888C52.3764 358.493 52.4515 358.055 52.4515 357.572C52.4515 357.095 52.3779 356.666 52.2308 356.283C52.0866 355.898 51.8673 355.593 51.573 355.369C51.2816 355.143 50.9152 355.029 50.4737 355.029C50.0499 355.029 49.6938 355.137 49.4054 355.352C49.117 355.563 48.8992 355.861 48.752 356.243C48.6049 356.623 48.5313 357.066 48.5313 357.572Z" fill="#888888"/>
</g>
<g filter="url(#filter6_f_47_341)">
<rect x="1124.19" y="48.4908" width="201.306" height="332.874" rx="20.3657" stroke="#ADADAD" stroke-width="0.70741"/>
<g clip-path="url(#clip3_47_341)">
<rect x="1134.19" y="58.4967" width="181.048" height="225.113" rx="19.1585" fill="#E1E1E1"/>
<path d="M1168.48 252.849L1173.85 220.106H1178.97L1173.59 252.849H1168.48ZM1153.82 244.727L1154.66 239.611H1180.24L1179.4 244.727H1153.82ZM1156.97 252.849L1162.34 220.106H1167.45L1162.08 252.849H1156.97ZM1155.69 233.344L1156.55 228.227H1182.13L1181.27 233.344H1155.69Z" fill="#545454"/>
<g filter="url(#filter7_f_47_341)">
<rect x="1186.08" y="9.37671" width="97.1625" height="97.1625" rx="48.5813" fill="#2400FF"/>
</g>
</g>
<path d="M1135.43 316.149V303.609H1137.7V308.918H1143.51V303.609H1145.79V316.149H1143.51V310.822H1137.7V316.149H1135.43ZM1150.87 316.339C1150.27 316.339 1149.74 316.233 1149.26 316.021C1148.79 315.804 1148.41 315.486 1148.13 315.065C1147.86 314.645 1147.72 314.127 1147.72 313.51C1147.72 312.979 1147.82 312.541 1148.02 312.194C1148.21 311.847 1148.48 311.569 1148.82 311.361C1149.16 311.153 1149.54 310.996 1149.96 310.889C1150.39 310.779 1150.83 310.7 1151.29 310.651C1151.84 310.593 1152.29 310.542 1152.63 310.498C1152.98 310.449 1153.23 310.375 1153.38 310.277C1153.54 310.175 1153.62 310.018 1153.62 309.806V309.769C1153.62 309.308 1153.48 308.95 1153.21 308.697C1152.94 308.444 1152.54 308.318 1152.03 308.318C1151.48 308.318 1151.05 308.436 1150.73 308.673C1150.42 308.91 1150.21 309.189 1150.1 309.512L1148.03 309.218C1148.19 308.646 1148.46 308.169 1148.84 307.785C1149.21 307.397 1149.67 307.107 1150.21 306.916C1150.76 306.72 1151.36 306.622 1152.01 306.622C1152.47 306.622 1152.92 306.675 1153.37 306.781C1153.82 306.887 1154.23 307.062 1154.6 307.307C1154.97 307.548 1155.27 307.877 1155.49 308.293C1155.72 308.71 1155.84 309.23 1155.84 309.855V316.149H1153.7V314.857H1153.63C1153.5 315.118 1153.31 315.363 1153.06 315.592C1152.82 315.816 1152.52 315.998 1152.15 316.137C1151.79 316.272 1151.36 316.339 1150.87 316.339ZM1151.45 314.71C1151.89 314.71 1152.28 314.622 1152.6 314.447C1152.93 314.267 1153.18 314.031 1153.36 313.737C1153.54 313.443 1153.63 313.122 1153.63 312.775V311.667C1153.56 311.724 1153.44 311.777 1153.27 311.826C1153.11 311.875 1152.92 311.918 1152.72 311.955C1152.51 311.992 1152.31 312.024 1152.11 312.053C1151.91 312.081 1151.74 312.106 1151.59 312.126C1151.26 312.171 1150.97 312.245 1150.7 312.347C1150.44 312.449 1150.24 312.592 1150.09 312.775C1149.93 312.955 1149.86 313.188 1149.86 313.473C1149.86 313.882 1150.01 314.19 1150.31 314.398C1150.6 314.606 1150.98 314.71 1151.45 314.71ZM1157.54 313.571H1159.74C1159.76 313.922 1159.92 314.194 1160.21 314.386C1160.51 314.578 1160.89 314.674 1161.36 314.674C1161.84 314.674 1162.24 314.569 1162.56 314.361C1162.9 314.149 1163.06 313.829 1163.06 313.4C1163.06 313.147 1163 312.924 1162.87 312.732C1162.74 312.537 1162.57 312.386 1162.34 312.279C1162.11 312.173 1161.84 312.12 1161.53 312.12H1160.09V310.547H1161.53C1161.99 310.547 1162.34 310.44 1162.58 310.228C1162.82 310.016 1162.94 309.748 1162.94 309.426C1162.94 309.079 1162.81 308.797 1162.56 308.581C1162.31 308.365 1161.96 308.256 1161.52 308.256C1161.08 308.256 1160.72 308.357 1160.42 308.557C1160.13 308.757 1159.98 309.014 1159.97 309.328H1157.78C1157.79 308.781 1157.95 308.305 1158.27 307.901C1158.59 307.497 1159.03 307.183 1159.57 306.958C1160.12 306.734 1160.73 306.622 1161.42 306.622C1162.15 306.622 1162.79 306.732 1163.32 306.952C1163.86 307.173 1164.27 307.481 1164.56 307.877C1164.85 308.269 1165 308.73 1165 309.261C1165 309.771 1164.84 310.193 1164.52 310.528C1164.2 310.859 1163.77 311.096 1163.23 311.238V311.336C1163.6 311.357 1163.94 311.463 1164.24 311.655C1164.53 311.843 1164.77 312.098 1164.95 312.42C1165.12 312.743 1165.21 313.116 1165.21 313.541C1165.21 314.116 1165.04 314.614 1164.71 315.035C1164.38 315.451 1163.93 315.772 1163.35 315.996C1162.77 316.221 1162.11 316.333 1161.37 316.333C1160.65 316.333 1160 316.225 1159.43 316.008C1158.86 315.788 1158.41 315.472 1158.08 315.059C1157.74 314.647 1157.56 314.151 1157.54 313.571ZM1166.96 316.149V306.744H1170.9C1172.02 306.744 1172.9 306.967 1173.54 307.412C1174.19 307.856 1174.52 308.477 1174.52 309.273C1174.52 309.8 1174.33 310.23 1173.97 310.565C1173.6 310.896 1173.11 311.118 1172.48 311.232C1172.97 311.273 1173.4 311.398 1173.78 311.606C1174.15 311.814 1174.45 312.088 1174.66 312.426C1174.87 312.765 1174.98 313.155 1174.98 313.596C1174.98 314.114 1174.84 314.565 1174.57 314.949C1174.3 315.329 1173.9 315.625 1173.38 315.837C1172.87 316.045 1172.25 316.149 1171.51 316.149H1166.96ZM1169.03 314.404H1171.51C1171.92 314.404 1172.24 314.308 1172.47 314.116C1172.7 313.92 1172.82 313.655 1172.82 313.32C1172.82 312.933 1172.7 312.628 1172.47 312.408C1172.24 312.183 1171.92 312.071 1171.51 312.071H1169.03V314.404ZM1169.03 310.638H1170.95C1171.25 310.638 1171.51 310.596 1171.72 310.51C1171.94 310.42 1172.11 310.295 1172.22 310.136C1172.34 309.973 1172.39 309.779 1172.39 309.555C1172.39 309.232 1172.26 308.979 1171.99 308.795C1171.73 308.612 1171.37 308.52 1170.9 308.52H1169.03V310.638ZM1179.51 316.339C1178.92 316.339 1178.38 316.233 1177.9 316.021C1177.43 315.804 1177.05 315.486 1176.78 315.065C1176.5 314.645 1176.36 314.127 1176.36 313.51C1176.36 312.979 1176.46 312.541 1176.66 312.194C1176.85 311.847 1177.12 311.569 1177.46 311.361C1177.8 311.153 1178.18 310.996 1178.61 310.889C1179.03 310.779 1179.48 310.7 1179.93 310.651C1180.49 310.593 1180.93 310.542 1181.28 310.498C1181.62 310.449 1181.87 310.375 1182.02 310.277C1182.18 310.175 1182.26 310.018 1182.26 309.806V309.769C1182.26 309.308 1182.12 308.95 1181.85 308.697C1181.58 308.444 1181.18 308.318 1180.67 308.318C1180.13 308.318 1179.7 308.436 1179.38 308.673C1179.06 308.91 1178.85 309.189 1178.74 309.512L1176.67 309.218C1176.83 308.646 1177.1 308.169 1177.48 307.785C1177.85 307.397 1178.31 307.107 1178.86 306.916C1179.4 306.72 1180 306.622 1180.66 306.622C1181.11 306.622 1181.56 306.675 1182.01 306.781C1182.46 306.887 1182.87 307.062 1183.24 307.307C1183.61 307.548 1183.91 307.877 1184.13 308.293C1184.36 308.71 1184.48 309.23 1184.48 309.855V316.149H1182.35V314.857H1182.27C1182.14 315.118 1181.95 315.363 1181.7 315.592C1181.46 315.816 1181.16 315.998 1180.79 316.137C1180.43 316.272 1180 316.339 1179.51 316.339ZM1180.09 314.71C1180.53 314.71 1180.92 314.622 1181.24 314.447C1181.57 314.267 1181.82 314.031 1182 313.737C1182.18 313.443 1182.27 313.122 1182.27 312.775V311.667C1182.2 311.724 1182.08 311.777 1181.91 311.826C1181.75 311.875 1181.57 311.918 1181.36 311.955C1181.16 311.992 1180.96 312.024 1180.76 312.053C1180.56 312.081 1180.38 312.106 1180.23 312.126C1179.9 312.171 1179.61 312.245 1179.35 312.347C1179.09 312.449 1178.88 312.592 1178.73 312.775C1178.58 312.955 1178.5 313.188 1178.5 313.473C1178.5 313.882 1178.65 314.19 1178.95 314.398C1179.25 314.606 1179.63 314.71 1180.09 314.71ZM1193.17 310.528V312.347H1188.16V310.528H1193.17ZM1188.84 306.744V316.149H1186.71V306.744H1188.84ZM1194.62 306.744V316.149H1192.49V306.744H1194.62ZM1199 313.149L1202.76 306.744H1205.04V316.149H1202.9V309.738L1199.14 316.149H1196.86V306.744H1199V313.149ZM1211.48 316.333C1210.54 316.333 1209.72 316.137 1209.04 315.745C1208.36 315.349 1207.83 314.79 1207.46 314.067C1207.1 313.341 1206.91 312.486 1206.91 311.502C1206.91 310.534 1207.1 309.685 1207.46 308.955C1207.84 308.22 1208.35 307.648 1209.02 307.24C1209.68 306.828 1210.47 306.622 1211.36 306.622C1211.94 306.622 1212.49 306.716 1213.01 306.903C1213.52 307.087 1213.98 307.373 1214.38 307.761C1214.78 308.148 1215.09 308.642 1215.32 309.242C1215.55 309.838 1215.66 310.549 1215.66 311.373V312.053H1207.95V310.559H1213.54C1213.53 310.134 1213.44 309.757 1213.26 309.426C1213.08 309.091 1212.83 308.828 1212.51 308.636C1212.19 308.444 1211.82 308.348 1211.4 308.348C1210.94 308.348 1210.54 308.459 1210.2 308.679C1209.86 308.895 1209.59 309.181 1209.4 309.536C1209.21 309.887 1209.12 310.273 1209.11 310.693V311.998C1209.11 312.545 1209.21 313.014 1209.41 313.406C1209.61 313.794 1209.89 314.092 1210.25 314.3C1210.61 314.504 1211.03 314.606 1211.51 314.606C1211.83 314.606 1212.13 314.561 1212.39 314.471C1212.65 314.378 1212.87 314.241 1213.07 314.061C1213.26 313.882 1213.4 313.659 1213.5 313.394L1215.57 313.626C1215.44 314.173 1215.19 314.651 1214.82 315.059C1214.46 315.463 1214 315.778 1213.43 316.002C1212.86 316.223 1212.21 316.333 1211.48 316.333ZM1221.82 316.149V306.744H1224.03V310.54H1224.84L1227.67 306.744H1230.34L1226.85 311.361L1230.38 316.149H1227.69L1225.12 312.604H1224.03V316.149H1221.82ZM1238.09 310.528V312.347H1233.08V310.528H1238.09ZM1233.77 306.744V316.149H1231.63V306.744H1233.77ZM1239.54 306.744V316.149H1237.41V306.744H1239.54ZM1243.92 313.149L1247.69 306.744H1249.97V316.149H1247.82V309.738L1244.07 316.149H1241.79V306.744H1243.92V313.149ZM1258.46 306.744V308.563H1254.41V316.149H1252.24V306.744H1258.46ZM1262.38 313.149L1266.14 306.744H1268.42V316.149H1266.28V309.738L1262.52 316.149H1260.24V306.744H1262.38V313.149Z" fill="black"/>
<path d="M1136 341.855H1134.59L1138.68 330.708H1140.07L1144.16 341.855H1142.75L1139.42 332.471H1139.33L1136 341.855ZM1136.52 337.5H1142.23V338.698H1136.52V337.5ZM1145.73 341.855V333.495H1149.14C1150.04 333.495 1150.76 333.698 1151.29 334.104C1151.82 334.511 1152.08 335.048 1152.08 335.715C1152.08 336.223 1151.93 336.617 1151.63 336.896C1151.33 337.172 1150.94 337.359 1150.47 337.457C1150.78 337.5 1151.08 337.609 1151.37 337.783C1151.66 337.958 1151.91 338.197 1152.1 338.502C1152.29 338.803 1152.39 339.173 1152.39 339.612C1152.39 340.04 1152.28 340.423 1152.06 340.761C1151.84 341.098 1151.53 341.365 1151.13 341.561C1150.72 341.757 1150.23 341.855 1149.67 341.855H1145.73ZM1146.95 340.679H1149.67C1150.11 340.679 1150.46 340.574 1150.71 340.363C1150.96 340.153 1151.08 339.866 1151.08 339.503C1151.08 339.072 1150.96 338.732 1150.71 338.486C1150.46 338.235 1150.11 338.11 1149.67 338.11H1146.95V340.679ZM1146.95 337H1149.14C1149.49 337 1149.79 336.953 1150.03 336.858C1150.28 336.76 1150.47 336.622 1150.6 336.445C1150.73 336.263 1150.8 336.049 1150.8 335.802C1150.8 335.45 1150.65 335.175 1150.36 334.975C1150.06 334.772 1149.66 334.67 1149.14 334.67H1146.95V337ZM1153.85 334.692V333.495H1160.65V334.692H1157.9V341.855H1156.62V334.692H1153.85ZM1165.48 342.029C1164.73 342.029 1164.07 341.849 1163.5 341.49C1162.93 341.131 1162.49 340.628 1162.17 339.982C1161.85 339.336 1161.69 338.582 1161.69 337.718C1161.69 336.847 1161.85 336.087 1162.17 335.438C1162.49 334.788 1162.93 334.284 1163.5 333.925C1164.07 333.565 1164.73 333.386 1165.48 333.386C1166.24 333.386 1166.9 333.565 1167.46 333.925C1168.03 334.284 1168.48 334.788 1168.79 335.438C1169.11 336.087 1169.27 336.847 1169.27 337.718C1169.27 338.582 1169.11 339.336 1168.79 339.982C1168.48 340.628 1168.03 341.131 1167.46 341.49C1166.9 341.849 1166.24 342.029 1165.48 342.029ZM1165.48 340.875C1166.06 340.875 1166.53 340.728 1166.9 340.434C1167.27 340.14 1167.54 339.754 1167.72 339.275C1167.9 338.796 1167.99 338.277 1167.99 337.718C1167.99 337.159 1167.9 336.639 1167.72 336.156C1167.54 335.674 1167.27 335.283 1166.9 334.986C1166.53 334.688 1166.06 334.54 1165.48 334.54C1164.91 334.54 1164.44 334.688 1164.07 334.986C1163.7 335.283 1163.42 335.674 1163.25 336.156C1163.07 336.639 1162.98 337.159 1162.98 337.718C1162.98 338.277 1163.07 338.796 1163.25 339.275C1163.42 339.754 1163.7 340.14 1164.07 340.434C1164.44 340.728 1164.91 340.875 1165.48 340.875ZM1171.23 344.99V333.495H1172.47V334.823H1172.62C1172.72 334.677 1172.85 334.492 1173.02 334.267C1173.19 334.039 1173.43 333.836 1173.75 333.658C1174.07 333.476 1174.5 333.386 1175.04 333.386C1175.75 333.386 1176.37 333.562 1176.9 333.914C1177.44 334.266 1177.86 334.765 1178.16 335.41C1178.46 336.056 1178.61 336.818 1178.61 337.696C1178.61 338.582 1178.46 339.349 1178.16 339.999C1177.86 340.645 1177.44 341.145 1176.91 341.501C1176.37 341.853 1175.76 342.029 1175.06 342.029C1174.53 342.029 1174.1 341.94 1173.77 341.762C1173.45 341.581 1173.2 341.376 1173.03 341.147C1172.85 340.915 1172.72 340.723 1172.62 340.57H1172.52V344.99H1171.23ZM1172.49 337.675C1172.49 338.306 1172.59 338.863 1172.77 339.346C1172.96 339.825 1173.23 340.2 1173.58 340.472C1173.94 340.741 1174.37 340.875 1174.89 340.875C1175.43 340.875 1175.87 340.733 1176.23 340.45C1176.6 340.164 1176.87 339.779 1177.05 339.297C1177.23 338.81 1177.33 338.27 1177.33 337.675C1177.33 337.087 1177.24 336.557 1177.06 336.085C1176.88 335.61 1176.61 335.234 1176.24 334.959C1175.88 334.679 1175.43 334.54 1174.89 334.54C1174.37 334.54 1173.93 334.672 1173.57 334.937C1173.22 335.198 1172.95 335.565 1172.77 336.036C1172.58 336.504 1172.49 337.051 1172.49 337.675Z" fill="black"/>
<path d="M1140.64 351.921V360.963H1139.54V351.921H1140.64ZM1134.53 360.963L1137.46 356.248L1134.78 351.921H1136.1L1138.45 355.93H1141.75L1144.1 351.921H1145.42L1142.72 356.265L1145.65 360.963H1144.4L1141.95 356.954H1138.24L1135.76 360.963H1134.53ZM1148.94 361.122C1148.51 361.122 1148.12 361.041 1147.77 360.879C1147.42 360.714 1147.14 360.477 1146.94 360.168C1146.73 359.856 1146.63 359.479 1146.63 359.038C1146.63 358.649 1146.71 358.334 1146.86 358.093C1147.01 357.849 1147.22 357.657 1147.47 357.519C1147.73 357.381 1148.01 357.278 1148.32 357.21C1148.63 357.14 1148.95 357.084 1149.26 357.042C1149.67 356.989 1150.01 356.95 1150.26 356.923C1150.52 356.894 1150.71 356.845 1150.83 356.778C1150.95 356.71 1151.01 356.592 1151.01 356.424V356.389C1151.01 355.953 1150.89 355.615 1150.65 355.374C1150.42 355.132 1150.06 355.012 1149.58 355.012C1149.08 355.012 1148.69 355.121 1148.41 355.338C1148.13 355.556 1147.93 355.789 1147.81 356.036L1146.82 355.683C1147 355.271 1147.24 354.95 1147.53 354.72C1147.83 354.488 1148.15 354.326 1148.5 354.235C1148.85 354.14 1149.2 354.093 1149.54 354.093C1149.76 354.093 1150.01 354.12 1150.29 354.173C1150.58 354.223 1150.85 354.327 1151.12 354.486C1151.39 354.645 1151.61 354.885 1151.79 355.206C1151.96 355.527 1152.05 355.956 1152.05 356.495V360.963H1151.01V360.044H1150.96C1150.89 360.191 1150.77 360.349 1150.6 360.517C1150.44 360.684 1150.22 360.827 1149.94 360.945C1149.67 361.063 1149.34 361.122 1148.94 361.122ZM1149.1 360.186C1149.51 360.186 1149.86 360.105 1150.14 359.943C1150.43 359.781 1150.64 359.572 1150.79 359.316C1150.94 359.06 1151.01 358.791 1151.01 358.508V357.554C1150.96 357.607 1150.87 357.656 1150.72 357.7C1150.57 357.741 1150.4 357.778 1150.21 357.811C1150.01 357.84 1149.83 357.866 1149.64 357.89C1149.47 357.911 1149.32 357.928 1149.21 357.943C1148.94 357.978 1148.68 358.036 1148.45 358.115C1148.22 358.192 1148.03 358.308 1147.88 358.464C1147.74 358.617 1147.67 358.826 1147.67 359.091C1147.67 359.453 1147.81 359.726 1148.07 359.912C1148.34 360.094 1148.69 360.186 1149.1 360.186ZM1158.49 357.095V358.067H1154.75V357.095H1158.49ZM1154.99 354.182V360.963H1153.95V354.182H1154.99ZM1159.29 354.182V360.963H1158.24V354.182H1159.29ZM1161.19 363.505V354.182H1162.19V355.259H1162.32C1162.39 355.141 1162.5 354.991 1162.64 354.809C1162.77 354.623 1162.97 354.458 1163.23 354.314C1163.49 354.167 1163.84 354.093 1164.28 354.093C1164.85 354.093 1165.35 354.236 1165.79 354.522C1166.22 354.807 1166.56 355.212 1166.81 355.736C1167.05 356.26 1167.17 356.878 1167.17 357.59C1167.17 358.308 1167.05 358.93 1166.81 359.457C1166.56 359.981 1166.22 360.387 1165.79 360.676C1165.36 360.961 1164.86 361.104 1164.3 361.104C1163.86 361.104 1163.51 361.032 1163.25 360.888C1162.99 360.74 1162.79 360.574 1162.64 360.389C1162.5 360.2 1162.39 360.044 1162.32 359.921H1162.23V363.505H1161.19ZM1162.21 357.572C1162.21 358.084 1162.29 358.536 1162.44 358.927C1162.59 359.316 1162.81 359.621 1163.09 359.841C1163.38 360.059 1163.74 360.168 1164.15 360.168C1164.59 360.168 1164.95 360.053 1165.24 359.824C1165.54 359.591 1165.76 359.279 1165.91 358.888C1166.06 358.493 1166.13 358.055 1166.13 357.572C1166.13 357.095 1166.06 356.666 1165.91 356.283C1165.77 355.898 1165.55 355.593 1165.25 355.369C1164.96 355.143 1164.6 355.029 1164.15 355.029C1163.73 355.029 1163.37 355.137 1163.09 355.352C1162.8 355.563 1162.58 355.861 1162.43 356.243C1162.29 356.623 1162.21 357.066 1162.21 357.572Z" fill="#888888"/>
</g>
<defs>
<filter id="filter0_f_47_341" x="236.667" y="0.499969" width="264.049" height="428.856" filterUnits="userSpaceOnUse" color-interpolation-filters="sRGB">
<feFlood flood-opacity="0" result="BackgroundImageFix"/>
<feBlend mode="normal" in="SourceGraphic" in2="BackgroundImageFix" result="shape"/>
<feGaussianBlur stdDeviation="2.75" result="effect1_foregroundBlur_47_341"/>
</filter>
<filter id="filter1_f_47_341" x="189.978" y="-172.711" width="382.026" height="382.026" filterUnits="userSpaceOnUse" color-interpolation-filters="sRGB">
<feFlood flood-opacity="0" result="BackgroundImageFix"/>
<feBlend mode="normal" in="SourceGraphic" in2="BackgroundImageFix" result="shape"/>
<feGaussianBlur stdDeviation="65.0791" result="effect1_foregroundBlur_47_341"/>
</filter>
<filter id="filter2_f_47_341" x="835.284" y="0.499969" width="264.049" height="428.856" filterUnits="userSpaceOnUse" color-interpolation-filters="sRGB">
<feFlood flood-opacity="0" result="BackgroundImageFix"/>
<feBlend mode="normal" in="SourceGraphic" in2="BackgroundImageFix" result="shape"/>
<feGaussianBlur stdDeviation="2.75" result="effect1_foregroundBlur_47_341"/>
</filter>
<filter id="filter3_f_47_341" x="788.596" y="-172.711" width="382.026" height="382.026" filterUnits="userSpaceOnUse" color-interpolation-filters="sRGB">
<feFlood flood-opacity="0" result="BackgroundImageFix"/>
<feBlend mode="normal" in="SourceGraphic" in2="BackgroundImageFix" result="shape"/>
<feGaussianBlur stdDeviation="65.0791" result="effect1_foregroundBlur_47_341"/>
</filter>
<filter id="filter4_f_47_341" x="0.452832" y="38.4371" width="221.414" height="352.982" filterUnits="userSpaceOnUse" color-interpolation-filters="sRGB">
<feFlood flood-opacity="0" result="BackgroundImageFix"/>
<feBlend mode="normal" in="SourceGraphic" in2="BackgroundImageFix" result="shape"/>
<feGaussianBlur stdDeviation="4.85" result="effect1_foregroundBlur_47_341"/>
</filter>
<filter id="filter5_f_47_341" x="-31.5102" y="-94.5309" width="304.978" height="304.978" filterUnits="userSpaceOnUse" color-interpolation-filters="sRGB">
<feFlood flood-opacity="0" result="BackgroundImageFix"/>
<feBlend mode="normal" in="SourceGraphic" in2="BackgroundImageFix" result="shape"/>
<feGaussianBlur stdDeviation="51.9538" result="effect1_foregroundBlur_47_341"/>
</filter>
<filter id="filter6_f_47_341" x="1114.13" y="38.4371" width="221.414" height="352.982" filterUnits="userSpaceOnUse" color-interpolation-filters="sRGB">
<feFlood flood-opacity="0" result="BackgroundImageFix"/>
<feBlend mode="normal" in="SourceGraphic" in2="BackgroundImageFix" result="shape"/>
<feGaussianBlur stdDeviation="4.85" result="effect1_foregroundBlur_47_341"/>
</filter>
<filter id="filter7_f_47_341" x="1082.17" y="-94.5309" width="304.978" height="304.978" filterUnits="userSpaceOnUse" color-interpolation-filters="sRGB">
<feFlood flood-opacity="0" result="BackgroundImageFix"/>
<feBlend mode="normal" in="SourceGraphic" in2="BackgroundImageFix" result="shape"/>
<feGaussianBlur stdDeviation="51.9538" result="effect1_foregroundBlur_47_341"/>
</filter>
<clipPath id="clip0_47_341">
<rect x="255.144" y="18.9769" width="226.787" height="281.984" rx="23.9986" fill="white"/>
</clipPath>
<clipPath id="clip1_47_341">
<rect x="853.761" y="18.9769" width="226.787" height="281.984" rx="23.9986" fill="white"/>
</clipPath>
<clipPath id="clip2_47_341">
<rect x="20.5127" y="58.4967" width="181.048" height="225.113" rx="19.1585" fill="white"/>
</clipPath>
<clipPath id="clip3_47_341">
<rect x="1134.19" y="58.4967" width="181.048" height="225.113" rx="19.1585" fill="white"/>
</clipPath>
</defs>
</svg>
