<svg width="322" height="57" viewBox="0 0 322 57" fill="none" xmlns="http://www.w3.org/2000/svg">
<path fill-rule="evenodd" clip-rule="evenodd" d="M19.2847 9.28983C20.1105 8.81397 21.0469 8.56348 22 8.56348C22.9531 8.56348 23.8895 8.81399 24.7153 9.28988C24.7166 9.29061 24.7178 9.29134 24.7191 9.29207L37.4084 16.5431C38.2343 17.0199 38.9203 17.7056 39.3975 18.5312C39.8748 19.3569 40.1265 20.2935 40.1275 21.2472V35.7529C40.1265 36.7066 39.8748 37.6432 39.3975 38.4689C38.9203 39.2946 38.2343 39.9802 37.4084 40.457L37.4014 40.461L24.7191 47.708C24.718 47.7087 24.7169 47.7093 24.7159 47.7099C23.8899 48.186 22.9533 48.4366 22 48.4366C21.0467 48.4366 20.1101 48.186 19.2842 47.71C19.2831 47.7093 19.282 47.7087 19.2808 47.708L6.59857 40.461L6.59157 40.457C5.76567 39.9802 5.07968 39.2946 4.60242 38.4689C4.12516 37.6432 3.87341 36.7066 3.87244 35.7529V21.2472C3.87341 20.2935 4.12516 19.3569 4.60242 18.5312C5.07968 17.7056 5.76567 17.0199 6.59157 16.5431L6.59856 16.539L19.2847 9.28983ZM22 12.189C21.6818 12.189 21.3692 12.2727 21.0936 12.4318L21.0866 12.4359L8.40432 19.6829C8.40337 19.6834 8.40242 19.684 8.40146 19.6845C8.12744 19.8434 7.89981 20.0713 7.74127 20.3456C7.58232 20.6206 7.49841 20.9325 7.49794 21.2501V35.75C7.49841 36.0676 7.58231 36.3795 7.74127 36.6545C7.89981 36.9288 8.12744 37.1567 8.40146 37.3156C8.40242 37.3161 8.40337 37.3167 8.40432 37.3172L21.0936 44.5682C21.3692 44.7274 21.6818 44.8111 22 44.8111C22.3182 44.8111 22.6308 44.7274 22.9064 44.5683L22.9134 44.5642L35.5956 37.3172C35.5966 37.3167 35.5976 37.3161 35.5985 37.3156C35.8725 37.1567 36.1002 36.9288 36.2587 36.6545C36.4178 36.3793 36.5017 36.0671 36.502 35.7492V21.2509C36.5017 20.933 36.4178 20.6208 36.2587 20.3456C36.1002 20.0713 35.8725 19.8434 35.5985 19.6845C35.5976 19.684 35.5966 19.6834 35.5956 19.6829L22.9063 12.4319C22.6308 12.2728 22.3182 12.189 22 12.189Z" fill="black"/>
<path fill-rule="evenodd" clip-rule="evenodd" d="M12.2731 13.4718C12.774 12.6049 13.8827 12.3082 14.7496 12.8091L22.0001 16.9983L29.2506 12.8091C30.1175 12.3082 31.2263 12.6049 31.7271 13.4718C32.228 14.3387 31.9313 15.4474 31.0644 15.9483L22.907 20.6614C22.3459 20.9856 21.6544 20.9856 21.0932 20.6614L12.9358 15.9483C12.069 15.4474 11.7723 14.3387 12.2731 13.4718Z" fill="black"/>
<path fill-rule="evenodd" clip-rule="evenodd" d="M4.11565 27.5932C4.6165 26.7263 5.72526 26.4296 6.59213 26.9305L14.7495 31.6436C15.3101 31.9675 15.6554 32.5658 15.6554 33.2132V42.6214C15.6554 43.6226 14.8438 44.4342 13.8426 44.4342C12.8415 44.4342 12.0299 43.6226 12.0299 42.6214V34.2594L4.77837 30.0697C3.9115 29.5688 3.61479 28.4601 4.11565 27.5932Z" fill="black"/>
<path fill-rule="evenodd" clip-rule="evenodd" d="M39.8844 27.5932C40.3852 28.4601 40.0885 29.5688 39.2216 30.0697L31.9701 34.2594V42.6214C31.9701 43.6226 31.1585 44.4342 30.1574 44.4342C29.1562 44.4342 28.3446 43.6226 28.3446 42.6214V33.2132C28.3446 32.5658 28.6899 31.9675 29.2505 31.6436L37.4079 26.9305C38.2747 26.4296 39.3835 26.7263 39.8844 27.5932Z" fill="black"/>
<path fill-rule="evenodd" clip-rule="evenodd" d="M4.60537 18.456C5.10668 17.5894 6.21559 17.2933 7.08219 17.7946L21.9998 26.4239L36.9175 17.7946C37.7841 17.2933 38.893 17.5894 39.3943 18.456C39.8956 19.3226 39.5995 20.4315 38.7329 20.9328L22.9075 30.0873C22.346 30.4121 21.6537 30.4121 21.0922 30.0873L5.26682 20.9328C4.40021 20.4315 4.10407 19.3226 4.60537 18.456Z" fill="black"/>
<path fill-rule="evenodd" clip-rule="evenodd" d="M22 26.6873C23.0012 26.6873 23.8128 27.4989 23.8128 28.5V46.7726C23.8128 47.7737 23.0012 48.5853 22 48.5853C20.9989 48.5853 20.1873 47.7737 20.1873 46.7726V28.5C20.1873 27.4989 20.9989 26.6873 22 26.6873Z" fill="black"/>
<path d="M54.5084 46V11.8182H67.0261C69.4518 11.8182 71.4602 12.2187 73.0513 13.0199C74.6425 13.8099 75.8331 14.8836 76.6231 16.2411C77.4131 17.5875 77.8081 19.1063 77.8081 20.7976C77.8081 22.2218 77.5466 23.4235 77.0236 24.4027C76.5007 25.3707 75.7997 26.1496 74.9207 26.7393C74.0528 27.3179 73.0959 27.7408 72.0499 28.0078V28.3416C73.1849 28.3973 74.292 28.7644 75.3713 29.4432C76.4617 30.1108 77.363 31.0621 78.0751 32.2972C78.7873 33.5323 79.1433 35.0344 79.1433 36.8036C79.1433 38.5505 78.7316 40.1194 77.9082 41.5103C77.096 42.89 75.8386 43.986 74.1362 44.7983C72.4338 45.5994 70.2585 46 67.6103 46H54.5084ZM59.6657 41.5771H67.1096C69.5798 41.5771 71.3489 41.0986 72.4171 40.1417C73.4853 39.1848 74.0194 37.9886 74.0194 36.5533C74.0194 35.474 73.7468 34.4837 73.2016 33.5824C72.6563 32.6811 71.8775 31.9634 70.8649 31.4293C69.8635 30.8952 68.6729 30.6282 67.2932 30.6282H59.6657V41.5771ZM59.6657 26.6058H66.5755C67.7327 26.6058 68.7731 26.3833 69.6966 25.9382C70.6312 25.4931 71.3712 24.87 71.9164 24.0689C72.4727 23.2566 72.7509 22.2997 72.7509 21.1982C72.7509 19.785 72.2558 18.6 71.2655 17.6431C70.2752 16.6862 68.7564 16.2077 66.709 16.2077H59.6657V26.6058ZM114.952 28.9091C114.952 32.5587 114.285 35.6965 112.95 38.3224C111.614 40.9373 109.784 42.9512 107.458 44.3643C105.144 45.7663 102.513 46.4673 99.564 46.4673C96.6042 46.4673 93.9616 45.7663 91.636 44.3643C89.3216 42.9512 87.4968 40.9317 86.1616 38.3058C84.8264 35.6798 84.1588 32.5476 84.1588 28.9091C84.1588 25.2595 84.8264 22.1272 86.1616 19.5124C87.4968 16.8865 89.3216 14.8725 91.636 13.4705C93.9616 12.0574 96.6042 11.3509 99.564 11.3509C102.513 11.3509 105.144 12.0574 107.458 13.4705C109.784 14.8725 111.614 16.8865 112.95 19.5124C114.285 22.1272 114.952 25.2595 114.952 28.9091ZM109.845 28.9091C109.845 26.1274 109.395 23.7852 108.493 21.8825C107.603 19.9686 106.379 18.5221 104.821 17.543C103.275 16.5527 101.522 16.0575 99.564 16.0575C97.5945 16.0575 95.8364 16.5527 94.2898 17.543C92.7432 18.5221 91.5192 19.9686 90.6179 21.8825C89.7278 23.7852 89.2827 26.1274 89.2827 28.9091C89.2827 31.6908 89.7278 34.0386 90.6179 35.9524C91.5192 37.8551 92.7432 39.3016 94.2898 40.2919C95.8364 41.2711 97.5945 41.7607 99.564 41.7607C101.522 41.7607 103.275 41.2711 104.821 40.2919C106.379 39.3016 107.603 37.8551 108.493 35.9524C109.395 34.0386 109.845 31.6908 109.845 28.9091ZM151.075 28.9091C151.075 32.5587 150.407 35.6965 149.072 38.3224C147.736 40.9373 145.906 42.9512 143.581 44.3643C141.266 45.7663 138.635 46.4673 135.686 46.4673C132.726 46.4673 130.084 45.7663 127.758 44.3643C125.444 42.9512 123.619 40.9317 122.284 38.3058C120.948 35.6798 120.281 32.5476 120.281 28.9091C120.281 25.2595 120.948 22.1272 122.284 19.5124C123.619 16.8865 125.444 14.8725 127.758 13.4705C130.084 12.0574 132.726 11.3509 135.686 11.3509C138.635 11.3509 141.266 12.0574 143.581 13.4705C145.906 14.8725 147.736 16.8865 149.072 19.5124C150.407 22.1272 151.075 25.2595 151.075 28.9091ZM145.967 28.9091C145.967 26.1274 145.517 23.7852 144.615 21.8825C143.725 19.9686 142.501 18.5221 140.943 17.543C139.397 16.5527 137.644 16.0575 135.686 16.0575C133.717 16.0575 131.959 16.5527 130.412 17.543C128.865 18.5221 127.641 19.9686 126.74 21.8825C125.85 23.7852 125.405 26.1274 125.405 28.9091C125.405 31.6908 125.85 34.0386 126.74 35.9524C127.641 37.8551 128.865 39.3016 130.412 40.2919C131.959 41.2711 133.717 41.7607 135.686 41.7607C137.644 41.7607 139.397 41.2711 140.943 40.2919C142.501 39.3016 143.725 37.8551 144.615 35.9524C145.517 34.0386 145.967 31.6908 145.967 28.9091ZM157.504 46V11.8182H162.662V28.1413H163.079L177.416 11.8182H183.909L170.122 27.2067L183.959 46H177.75L166.701 30.7283L162.662 35.3683V46H157.504ZM207.267 20.7976C207.089 19.2176 206.354 17.9936 205.064 17.1257C203.773 16.2467 202.148 15.8072 200.19 15.8072C198.788 15.8072 197.575 16.0297 196.552 16.4748C195.528 16.9087 194.732 17.5096 194.165 18.2773C193.608 19.034 193.33 19.8963 193.33 20.8643C193.33 21.6766 193.519 22.3776 193.898 22.9673C194.287 23.5571 194.793 24.0522 195.417 24.4528C196.051 24.8422 196.73 25.1705 197.453 25.4375C198.176 25.6934 198.871 25.9048 199.539 26.0717L202.877 26.9396C203.968 27.2067 205.086 27.5683 206.232 28.0245C207.378 28.4807 208.441 29.0816 209.42 29.8271C210.399 30.5726 211.189 31.4961 211.79 32.5977C212.402 33.6992 212.708 35.0178 212.708 36.5533C212.708 38.4893 212.207 40.2085 211.206 41.7106C210.215 43.2127 208.774 44.3977 206.883 45.2656C205.002 46.1335 202.727 46.5675 200.056 46.5675C197.497 46.5675 195.283 46.1613 193.414 45.3491C191.544 44.5368 190.081 43.3852 189.024 41.8942C187.967 40.392 187.383 38.6117 187.272 36.5533H192.446C192.546 37.7884 192.946 38.8176 193.647 39.641C194.36 40.4532 195.266 41.0597 196.368 41.4602C197.481 41.8497 198.699 42.0444 200.023 42.0444C201.481 42.0444 202.777 41.8163 203.912 41.3601C205.058 40.8928 205.959 40.2474 206.616 39.424C207.272 38.5895 207.601 37.6159 207.601 36.5032C207.601 35.4906 207.311 34.6617 206.733 34.0163C206.165 33.371 205.392 32.8369 204.413 32.4141C203.445 31.9912 202.349 31.6185 201.125 31.2958L197.086 30.1942C194.348 29.4487 192.179 28.3527 190.576 26.9062C188.985 25.4598 188.19 23.5459 188.19 21.1648C188.19 19.1953 188.724 17.4762 189.792 16.0075C190.86 14.5387 192.307 13.3982 194.131 12.5859C195.956 11.7625 198.015 11.3509 200.307 11.3509C202.621 11.3509 204.663 11.757 206.432 12.5692C208.213 13.3815 209.614 14.4998 210.638 15.924C211.662 17.3371 212.196 18.9616 212.24 20.7976H207.267ZM225.564 46L216.083 11.8182H221.508L228.167 38.2891H228.484L235.411 11.8182H240.785L247.712 38.3058H248.029L254.671 11.8182H260.113L250.616 46H245.425L238.231 20.397H237.964L230.771 46H225.564ZM264.765 46H259.291L271.591 11.8182H277.55L289.851 46H284.376L274.712 18.027H274.445L264.765 46ZM265.683 32.6143H283.441V36.9538H265.683V32.6143ZM294.787 46V11.8182H306.971C309.63 11.8182 311.833 12.3022 313.58 13.2702C315.327 14.2383 316.634 15.5624 317.502 17.2425C318.37 18.9116 318.804 20.792 318.804 22.8839C318.804 24.9869 318.365 26.8784 317.486 28.5586C316.618 30.2276 315.305 31.5517 313.547 32.5309C311.8 33.4989 309.602 33.983 306.954 33.983H298.575V29.6101H306.487C308.167 29.6101 309.53 29.3208 310.576 28.7422C311.622 28.1525 312.389 27.3513 312.879 26.3388C313.369 25.3262 313.613 24.1746 313.613 22.8839C313.613 21.5932 313.369 20.4471 312.879 19.4457C312.389 18.4442 311.616 17.6598 310.559 17.0923C309.513 16.5249 308.133 16.2411 306.42 16.2411H299.944V46H294.787Z" fill="black"/>
<circle cx="102.275" cy="33.4653" r="4.17096" fill="black"/>
<circle cx="138.459" cy="33.4653" r="4.17096" fill="black"/>
</svg>
